<?xml version="1.0" encoding="UTF-8"?>
<svg version="1.1" xmlns="http://www.w3.org/2000/svg" width="500" height="500">
<path d="M0 0 C0.59280762 0.39896484 1.18561523 0.79792969 1.79638672 1.20898438 C22.95707617 15.51967117 42.84046537 33.65545364 57.82177734 54.37744141 C59.01016421 56.01399738 60.23017469 57.62261288 61.45703125 59.23046875 C99.04710107 109.24450062 113.47774748 174.30616178 104.96875 235.83203125 C97.24169612 286.76832341 74.39922325 331.77793054 39 369 C38.46213867 369.56654297 37.92427734 370.13308594 37.37011719 370.71679688 C29.14882402 379.31329638 20.56177376 386.93283576 11 394 C10.43845215 394.4223291 9.8769043 394.8446582 9.29833984 395.27978516 C-41.21994907 433.2085726 -105.64097778 448.27170546 -168 440 C-206.62930155 434.24720555 -243.4462458 420.18562758 -275 397 C-275.86165771 396.37375732 -275.86165771 396.37375732 -276.74072266 395.73486328 C-285.39309055 389.41419696 -293.28913627 382.42987463 -301 375 C-301.61166016 374.41557129 -302.22332031 373.83114258 -302.85351562 373.22900391 C-311.73630684 364.70687761 -319.71015146 355.9144044 -327 346 C-327.47501953 345.36932617 -327.95003906 344.73865234 -328.43945312 344.08886719 C-366.53108793 293.4254873 -381.59113027 228.60897926 -372.9765625 166.1171875 C-371.52733683 156.60870684 -369.45337246 147.29578965 -367 138 C-366.67757324 136.75259033 -366.67757324 136.75259033 -366.34863281 135.47998047 C-356.2730403 97.17315003 -335.34959364 62.42720438 -308 34 C-307.40026367 33.37303223 -306.80052734 32.74606445 -306.18261719 32.10009766 C-297.3560816 22.9204118 -288.37958224 14.39633496 -278 7 C-277.24654297 6.46165527 -276.49308594 5.92331055 -275.71679688 5.36865234 C-256.21767417 -8.40891503 -235.63931255 -19.36479798 -213 -27 C-211.77748535 -27.41306396 -211.77748535 -27.41306396 -210.53027344 -27.83447266 C-140.80639767 -50.94112665 -61.04979272 -41.7221327 0 0 Z " fill="#010101" transform="translate(384,49)"/>
<path d="M0 0 C3.08616277 5.43533144 4.53405839 11.09106299 6.0625 17.125 C6.45937012 18.66172363 6.45937012 18.66172363 6.86425781 20.22949219 C8.43641653 26.42564712 9.78933459 32.54274023 10.578125 38.890625 C10.91897735 41.29094498 10.91897735 41.29094498 13 44 C13.26069641 45.97251892 13.26069641 45.97251892 13.2746582 48.24584961 C13.28419022 49.10202377 13.29372223 49.95819794 13.30354309 50.84031677 C13.30217598 52.23227013 13.30217598 52.23227013 13.30078125 53.65234375 C13.30506638 54.6216835 13.3093515 55.59102325 13.31376648 56.58973694 C13.31951934 58.65348533 13.32000304 60.717254 13.31567383 62.78100586 C13.31257114 65.86675279 13.33575734 68.95148522 13.36132812 72.03710938 C13.41289713 88.09447015 12.59494386 104.10232129 6.96484375 119.29296875 C5.96091356 122.10966356 5.24480431 124.90210591 4.5625 127.8125 C2.03839247 138.32499182 -0.96863703 149.95295554 -7 159 C-7.66 159.33 -8.32 159.66 -9 160 C-9.65213292 162.02463255 -9.65213292 162.02463255 -10 164 C-10.66 164 -11.32 164 -12 164 C-12.38478516 165.31097656 -12.38478516 165.31097656 -12.77734375 166.6484375 C-18.36722328 181.97149384 -33.76101911 199.98083073 -46 211 C-46.66 211 -47.32 211 -48 211 C-48.66 212.65 -49.32 214.3 -50 216 C-50.66 216 -51.32 216 -52 216 C-52.2371875 216.58652344 -52.474375 217.17304688 -52.71875 217.77734375 C-54.27197996 220.47181889 -55.99106021 221.74188947 -58.5 223.5625 C-61.37514757 225.65818386 -62.99874622 226.99811934 -65 230 C-66.32 230 -67.64 230 -69 230 C-69 230.66 -69 231.32 -69 232 C-69.99580078 232.34611328 -69.99580078 232.34611328 -71.01171875 232.69921875 C-76.748004 234.78474451 -76.748004 234.78474451 -81.5 238.5 C-84.49679709 241.49679709 -87.16463185 242.44880352 -91.09375 243.88671875 C-95.61461844 245.61850303 -99.94399442 247.746903 -104.3125 249.828125 C-107 251 -107 251 -109 251 C-109 251.99 -109 252.98 -109 254 C-110.86205078 254.50660156 -110.86205078 254.50660156 -112.76171875 255.0234375 C-114.4036876 255.4738061 -116.04561237 255.92433539 -117.6875 256.375 C-118.50412109 256.59671875 -119.32074219 256.8184375 -120.16210938 257.046875 C-124.88098699 258.33541134 -124.88098699 258.33541134 -129.44921875 260.0625 C-133.55360294 261.57100261 -137.80725356 262.02565276 -142.125 262.625 C-143.011875 262.7590625 -143.89875 262.893125 -144.8125 263.03125 C-146.14667969 263.22074219 -146.14667969 263.22074219 -147.5078125 263.4140625 C-148.29816895 263.5270166 -149.08852539 263.6399707 -149.90283203 263.75634766 C-154.58811389 264.12493597 -159.30024219 264 -164 264 C-164 249.81 -164 235.62 -164 221 C-155 219 -155 219 -150.48828125 218.578125 C-145.69319982 218.09976077 -141.61434791 216.59088663 -137.1875 214.75 C-136.01356689 214.27530273 -136.01356689 214.27530273 -134.81591797 213.79101562 C-133.25439081 213.15779918 -131.69475052 212.51990602 -130.13720703 211.87695312 C-128.29630359 211.12158128 -126.44403641 210.39401189 -124.58984375 209.671875 C-118.14133554 207.12305753 -112.30410318 203.99032072 -106.3984375 200.35546875 C-104 199 -104 199 -102 199 C-102 198.34 -102 197.68 -102 197 C-99.35923218 195.12366497 -96.6411297 193.40473551 -93.90234375 191.67578125 C-80.58329777 182.84830002 -68.43724438 170.95428434 -59.6875 157.5625 C-58 155 -58 155 -56.08984375 153.1796875 C-53.8021217 150.79361479 -52.41998895 148.47856553 -50.875 145.5625 C-50.37742187 144.63566406 -49.87984375 143.70882812 -49.3671875 142.75390625 C-48.10285277 140.20717487 -47.01210926 137.65558191 -46 135 C-45.34 135 -44.68 135 -44 135 C-43.90203125 134.35675781 -43.8040625 133.71351563 -43.703125 133.05078125 C-40.76049193 115.26814522 -40.76049193 115.26814522 -36.4765625 108.64453125 C-34.49286797 105.09172385 -33.90001158 101.53535075 -33.3125 97.5625 C-33.18657471 96.71864746 -33.06064941 95.87479492 -32.9309082 95.00537109 C-31.84908969 86.72729876 -31.70201982 78.45899671 -31.6875 70.125 C-31.68210205 68.82377197 -31.6767041 67.52254395 -31.67114258 66.18188477 C-31.71549472 60.27919311 -31.96423999 55.57766288 -34 50 C-36.12996963 42.43902604 -37.35150054 34.6233759 -35 27 C-28.45799739 16.96270746 -12.456246 -1.18630914 0 0 Z " fill="#FCFCFC" transform="translate(432,176)"/>
<path d="M0 0 C10.65688885 -0.0694077 21.31372422 -0.12276419 31.97079277 -0.15543652 C36.91892333 -0.17111495 41.86689964 -0.19239277 46.81494141 -0.22631836 C51.58708341 -0.2588344 56.35907675 -0.2768366 61.13132095 -0.28463173 C62.95506253 -0.29018923 64.77879567 -0.30104119 66.60247421 -0.31719017 C69.1503657 -0.33886167 71.69763715 -0.34197129 74.24560547 -0.34057617 C75.00517548 -0.351362 75.76474548 -0.36214783 76.54733276 -0.3732605 C78.64645386 -0.36076355 78.64645386 -0.36076355 82 0 C84.42785052 3.64177579 84.27569009 6.31188454 84.24291992 10.51879883 C84.24481827 11.28369125 84.24671661 12.04858368 84.24867249 12.83665466 C84.25238799 15.37688329 84.2416469 17.91682774 84.23046875 20.45703125 C84.22927495 22.23849962 84.22882421 24.01996863 84.2290802 25.80143738 C84.22751286 29.55166526 84.219218 33.30179804 84.20581055 37.05200195 C84.18905137 41.79344354 84.18509342 46.53477951 84.185606 51.27624702 C84.18491059 84.0686481 84.18491059 84.0686481 83.61328125 98.32421875 C83.58316452 99.16990921 83.55304779 100.01559967 83.52201843 100.88691711 C83.3196099 104.94304168 82.94087477 108.39165609 81 112 C80.01 112.495 80.01 112.495 79 113 C78.5457666 113.76030518 78.0915332 114.52061035 77.62353516 115.30395508 C75.98734711 118.02101141 74.28674891 119.92862939 72.0234375 122.13671875 C71.270625 122.87857422 70.5178125 123.62042969 69.7421875 124.38476562 C68.96101563 125.14466797 68.17984375 125.90457031 67.375 126.6875 C65.81813812 128.21001933 64.26334169 129.73465449 62.7109375 131.26171875 C62.02306152 131.93162842 61.33518555 132.60153809 60.62646484 133.29174805 C58.91882516 134.91828941 58.91882516 134.91828941 58 137 C55.69 137 53.38 137 51 137 C51 136.34 51 135.68 51 135 C50.09121094 134.814375 50.09121094 134.814375 49.1640625 134.625 C39.07845757 132.14238956 32.34336054 125.98741276 25.84765625 118.125 C23.68037422 115.63239657 21.32735154 113.40444111 18.9375 111.125 C14.89954764 107.15444897 12.00230299 103.21906147 9.3515625 98.2265625 C8.07725306 95.91613775 8.07725306 95.91613775 6.0546875 94.11328125 C-6.98673777 80.69995221 -9.39512474 56.9188592 -9.3125 39.3125 C-9.30831055 38.09095215 -9.30412109 36.8694043 -9.29980469 35.61083984 C-8.99220574 10.86221426 -8.99220574 10.86221426 -2 2 C-1.34 2 -0.68 2 0 2 C0 1.34 0 0.68 0 0 Z " fill="#FDFDFD" transform="translate(147,208)"/>
<path d="M0 0 C1.14250465 0.00333092 1.14250465 0.00333092 2.30809021 0.00672913 C3.16890701 0.00680466 4.02972382 0.00688019 4.91662598 0.00695801 C5.8520372 0.01211929 6.78744843 0.01728058 7.75120544 0.02259827 C8.70422043 0.02401321 9.65723541 0.02542816 10.63912964 0.02688599 C13.69605085 0.032503 16.75289996 0.04505836 19.80979919 0.05775452 C21.87685543 0.06276733 23.94391281 0.06733061 26.01097107 0.07142639 C31.08977507 0.08247795 36.16852489 0.09975397 41.24729919 0.12025452 C41.40400128 4.97801917 41.31700624 9.31972023 40.26609802 14.07118225 C39.17510903 19.06372446 38.94095744 23.80722322 38.94651794 28.90541077 C38.94009026 30.25535378 38.94009026 30.25535378 38.93353271 31.63256836 C38.92783001 33.52583482 38.92725889 35.41912317 38.93162537 37.31239319 C38.9347649 40.15174017 38.91134542 42.99002168 38.88597107 45.82923889 C38.84750258 57.18065845 39.54932247 68.06147579 42.24729919 79.12025452 C42.57729919 79.45025452 42.90729919 79.78025452 43.24729919 80.12025452 C43.62169842 81.6734263 43.94706436 83.23855841 44.24729919 84.80775452 C44.42003357 85.70623108 44.59276794 86.60470764 44.77073669 87.53041077 C45.29668597 90.38864332 45.7940322 93.24956358 46.24729919 96.12025452 C46.90729919 96.12025452 47.56729919 96.12025452 48.24729919 96.12025452 C48.51542419 97.04837952 48.78354919 97.97650452 49.05979919 98.93275452 C50.24040118 102.10173879 50.92483717 102.88711795 53.24729919 105.12025452 C57.24729919 111.27187907 57.24729919 111.27187907 57.24729919 114.12025452 C57.90729919 114.12025452 58.56729919 114.12025452 59.24729919 114.12025452 C61.28489537 116.92194926 62.23963456 119.08262812 62.93479919 122.49525452 C64.52243672 126.88015816 66.52235232 128.42316604 70.07933044 131.28041077 C72.99718725 133.756646 75.36302523 136.58059426 77.80198669 139.51869202 C79.17538937 141.23613267 79.17538937 141.23613267 81.24729919 142.12025452 C81.63917419 142.80087952 82.03104919 143.48150452 82.43479919 144.18275452 C86.32427159 150.4863822 91.3274119 157.05119434 98.68479919 159.05775452 C102.47383398 160.18781752 104.36311945 161.46992718 107.24729919 164.12025452 C108.42292419 165.07931702 108.42292419 165.07931702 109.62229919 166.05775452 C111.24729919 168.12025452 111.24729919 168.12025452 111.37229919 170.43275452 C108.51617055 177.2557285 102.09649249 182.78605498 96.24729919 187.12025452 C95.58729919 187.12025452 94.92729919 187.12025452 94.24729919 187.12025452 C93.88184998 187.97877014 93.88184998 187.97877014 93.50901794 188.85462952 C90.56584367 194.13958641 85.5948243 198.43733812 79.80979919 200.12025452 C72.17832238 197.97808559 66.69229622 191.62213957 61.24729919 186.12025452 C60.17052198 185.06419104 59.09230798 184.00959122 58.01292419 182.95619202 C51.68412295 176.74192301 45.66576718 170.53131535 40.21214294 163.52259827 C38.25456389 161.03919921 38.25456389 161.03919921 35.79417419 158.71791077 C33.02669522 155.895252 30.7763158 152.87517328 28.55979919 149.62025452 C28.16985779 149.06466858 27.77991638 148.50908264 27.37815857 147.93666077 C25.65763763 145.43675855 24.24700759 143.11948814 23.16526794 140.27650452 C22.86233826 139.56494202 22.55940857 138.85337952 22.24729919 138.12025452 C21.25729919 137.79025452 20.26729919 137.46025452 19.24729919 137.12025452 C18.23200378 134.79353587 17.23241722 132.45990982 16.24729919 130.12025452 C14.76229919 129.13025452 14.76229919 129.13025452 13.24729919 128.12025452 C12.47386169 126.41322327 12.47386169 126.41322327 11.87229919 124.30775452 C10.73920698 120.58557595 9.41310641 117.03170052 7.93479919 113.43275452 C5.51505899 107.22848161 3.68844472 100.91729727 1.93479919 94.49525452 C1.66820496 93.52241516 1.40161072 92.54957581 1.12693787 91.54725647 C-0.75270081 84.51729665 -0.75270081 84.51729665 -0.75270081 81.12025452 C-1.41270081 81.12025452 -2.07270081 81.12025452 -2.75270081 81.12025452 C-5.56416151 69.2478637 -6.2233206 57.90044305 -6.14381409 45.73085022 C-6.127778 42.8217591 -6.14372665 39.9140686 -6.16285706 37.00502014 C-6.17547585 24.82826685 -5.30876505 13.04715019 -2.75270081 1.12025452 C-1.75270081 0.12025452 -1.75270081 0.12025452 0 0 Z " fill="#FCFCFC" transform="translate(58.75270080566406,207.87974548339844)"/>
<path d="M0 0 C5.91099131 1.94333961 11.05345473 5.42282179 16.20239258 8.85473633 C17.66118728 9.81250901 19.16032179 10.7082138 20.6640625 11.59375 C23.49746067 13.33426602 25.496464 15.5824015 27.8515625 17.9375 C29.33833853 19.16206787 30.84013246 20.36849469 32.3515625 21.5625 C41.44239562 28.7706162 50.20135153 36.11057819 58.4140625 44.3125 C58.99768555 44.89531738 59.58130859 45.47813477 60.18261719 46.07861328 C68.20078815 54.20210172 68.20078815 54.20210172 69.7890625 58.4375 C71.38585136 62.19465026 74.22465897 64.54867991 77.29296875 67.16796875 C79.52392569 69.70085971 80.88883729 72.61175429 82.3515625 75.625 C82.65980957 76.25349854 82.96805664 76.88199707 83.28564453 77.52954102 C89.71407986 90.78840271 89.71407986 90.78840271 89.8515625 97.9375 C88.5390625 100.375 88.5390625 100.375 85.8515625 101.9375 C81.80891667 102.39319277 77.55495295 102.78919522 73.8515625 100.9375 C71.74781254 100.78308791 69.63961131 100.68757361 67.53125 100.62109375 C66.27441406 100.57919922 65.01757812 100.53730469 63.72265625 100.49414062 C62.40394531 100.45482422 61.08523438 100.41550781 59.7265625 100.375 C58.38670499 100.33180488 57.04686094 100.28819027 55.70703125 100.24414062 C52.42198435 100.13779019 49.13685969 100.03576192 45.8515625 99.9375 C45.1915625 97.9575 44.5315625 95.9775 43.8515625 93.9375 C43.1915625 93.9375 42.5315625 93.9375 41.8515625 93.9375 C40.73828125 92.36328125 40.73828125 92.36328125 39.5390625 90.25 C37.35775507 86.60593347 34.94424951 83.87158767 31.8515625 80.9375 C30.7996875 79.6071875 30.7996875 79.6071875 29.7265625 78.25 C27.88595177 75.74596331 27.88595177 75.74596331 24.8515625 73.9375 C24.40425781 73.17824219 23.95695312 72.41898437 23.49609375 71.63671875 C17.95224099 62.53742598 7.43651806 55.97152873 -1.21484375 50.03125 C-4.1484375 47.9375 -4.1484375 47.9375 -5.7734375 46.30859375 C-8.08264771 44.0059438 -11.0155616 42.79242622 -13.89453125 41.31640625 C-16.1484375 39.9375 -16.1484375 39.9375 -18.046875 37.8515625 C-20.76146896 35.37916279 -22.72682629 35.19399541 -26.3359375 34.75 C-32.07899306 34.00694444 -32.07899306 34.00694444 -33.1484375 32.9375 C-33.18924533 30.93791636 -33.19098106 28.93704746 -33.1484375 26.9375 C-31.8284375 26.2775 -30.5084375 25.6175 -29.1484375 24.9375 C-29.1484375 24.2775 -29.1484375 23.6175 -29.1484375 22.9375 C-28.4678125 22.40125 -27.7871875 21.865 -27.0859375 21.3125 C-24.68587266 19.37202204 -22.93679057 17.63482967 -20.9609375 15.3125 C-20.36539062 14.62929687 -19.76984375 13.94609375 -19.15625 13.2421875 C-17.70048914 11.57117795 -16.25965784 9.88712404 -14.828125 8.1953125 C-6.79808063 -0.69059867 -6.79808063 -0.69059867 0 0 Z " fill="#FBFBFB" transform="translate(337.1484375,71.0625)"/>
<path d="M0 0 C4.62591228 -0.60964164 7.11394021 -0.06828833 10.97949219 2.64770508 C13.79590501 5.08831457 16.40289188 7.71485189 18.97070312 10.41357422 C20.60026652 12.11980278 22.27107071 13.77557837 23.95239258 15.43066406 C25.00655377 16.502205 26.05808578 17.57634021 27.10668945 18.65332031 C27.6054509 19.1473233 28.10421234 19.64132629 28.61808777 20.15029907 C31.09518405 22.80282237 31.91192896 24.06406769 31.87329102 27.74902344 C30.9074707 30.48925781 30.9074707 30.48925781 28.25512695 32.16894531 C27.17102539 32.56339844 26.08692383 32.95785156 24.9699707 33.36425781 C23.88844727 33.77417969 22.80692383 34.18410156 21.69262695 34.60644531 C18.9074707 35.48925781 18.9074707 35.48925781 16.9074707 35.48925781 C16.9074707 36.14925781 16.9074707 36.80925781 16.9074707 37.48925781 C16.25262695 37.75738281 15.5977832 38.02550781 14.9230957 38.30175781 C3.74668793 43.10066736 -5.55849404 49.55341134 -14.26025391 57.98388672 C-17.90140078 61.48925781 -17.90140078 61.48925781 -20.0925293 61.48925781 C-20.3194043 62.04613281 -20.5462793 62.60300781 -20.7800293 63.17675781 C-22.10562263 65.51232702 -23.64188981 67.11790081 -25.55737305 68.97753906 C-31.28502582 74.61774676 -36.07606364 80.69171606 -40.5300293 87.36425781 C-40.96726318 88.01894043 -41.40449707 88.67362305 -41.85498047 89.34814453 C-43.61676945 92.03772304 -45.07134569 94.42570699 -46.0925293 97.48925781 C-61.6025293 97.48925781 -77.1125293 97.48925781 -93.0925293 97.48925781 C-93.0925293 90.73925781 -93.0925293 90.73925781 -91.0925293 87.11425781 C-90.7212793 86.42589844 -90.3500293 85.73753906 -89.9675293 85.02832031 C-89.6787793 84.52042969 -89.3900293 84.01253906 -89.0925293 83.48925781 C-88.4325293 83.48925781 -87.7725293 83.48925781 -87.0925293 83.48925781 C-86.98038086 82.48185547 -86.98038086 82.48185547 -86.8659668 81.45410156 C-85.84483302 77.53975542 -83.87352176 74.42513202 -81.7175293 71.05175781 C-81.04923096 69.99831177 -81.04923096 69.99831177 -80.36743164 68.92358398 C-72.49477764 56.72742327 -63.11368055 45.95154558 -53.0925293 35.48925781 C-52.38354492 34.73902344 -51.67456055 33.98878906 -50.9440918 33.21582031 C-45.72208036 27.82329422 -39.96175911 23.15656762 -34.0925293 18.48925781 C-33.21209961 17.76738281 -32.33166992 17.04550781 -31.42456055 16.30175781 C-28.05809319 13.68527397 -25.36214102 12.48925781 -21.0925293 12.48925781 C-21.0925293 11.82925781 -21.0925293 11.16925781 -21.0925293 10.48925781 C-19.36726888 9.5452474 -17.64200846 8.60123698 -15.91674805 7.65722656 C-14.04454419 6.55796524 -14.04454419 6.55796524 -12.6159668 4.95800781 C-10.82978942 3.23594963 -9.37035187 2.60451819 -7.0300293 1.80175781 C-6.33780273 1.55039063 -5.64557617 1.29902344 -4.93237305 1.04003906 C-3.2828337 0.72011465 -1.63614988 0.38255097 0 0 Z " fill="#FCFCFC" transform="translate(162.092529296875,73.5107421875)"/>
<path d="M0 0 C1.01513672 0.20689453 1.01513672 0.20689453 2.05078125 0.41796875 C2.3743545 11.23969636 2.44503368 22.45030355 -2.10424805 32.46289062 C-4.16123603 37.22231268 -5.68227672 42.21480812 -7.34375 47.12304688 C-10.53209158 56.40013768 -10.53209158 56.40013768 -12.94921875 60.41796875 C-14.43421875 60.91296875 -14.43421875 60.91296875 -15.94921875 61.41796875 C-17.51015083 63.59831367 -17.51015083 63.59831367 -19.01171875 66.29296875 C-27.87682857 80.58795834 -40.95182323 91.88915574 -55.94921875 99.41796875 C-57.14089853 100.09819798 -58.32860146 100.78545366 -59.51171875 101.48046875 C-69.41849999 107.0642909 -79.47235892 111.53513338 -90.94921875 112.41796875 C-92.95858412 104.88548419 -94.81457628 94.38015689 -90.74951172 87.34033203 C-87.77554841 83.65505848 -84.27295318 80.65592239 -80.56811523 77.72827148 C-76.25388805 74.23642149 -72.7522961 70.06874257 -69.28125 65.7734375 C-68.84167969 65.32613281 -68.40210938 64.87882812 -67.94921875 64.41796875 C-67.28921875 64.41796875 -66.62921875 64.41796875 -65.94921875 64.41796875 C-65.94921875 63.75796875 -65.94921875 63.09796875 -65.94921875 62.41796875 C-64.515625 60.97265625 -64.515625 60.97265625 -62.51171875 59.29296875 C-61.42117188 58.36484375 -61.42117188 58.36484375 -60.30859375 57.41796875 C-59.53 56.75796875 -58.75140625 56.09796875 -57.94921875 55.41796875 C-56.38219813 54.04812291 -54.81964689 52.6731467 -53.26171875 51.29296875 C-52.55660156 50.67164063 -51.85148437 50.0503125 -51.125 49.41015625 C-47.76081982 46.32984765 -44.58667031 43.0730457 -41.40625 39.8046875 C-36.23561923 34.52713083 -31.03003897 29.66412981 -25.140625 25.171875 C-20.79517376 21.79444941 -20.79517376 21.79444941 -18.125 17.125 C-16.33161274 12.99603863 -13.29689295 10.25267813 -10.13671875 7.10546875 C-9.51990234 6.46029297 -8.90308594 5.81511719 -8.26757812 5.15039062 C-3.65475422 0.51795855 -3.65475422 0.51795855 0 0 Z " fill="#FCFCFC" transform="translate(358.94921875,243.58203125)"/>
<path d="M0 0 C22.44 0 44.88 0 68 0 C68 5 68 5 65.90234375 7.3671875 C64.92394531 8.19476563 63.94554687 9.02234375 62.9375 9.875 C61.83807673 10.82981082 60.74188348 11.78834978 59.6484375 12.75 C58.76623535 13.5234375 58.76623535 13.5234375 57.86621094 14.3125 C54.47732238 17.37686391 51.27705555 20.62981449 48.0625 23.875 C47.43657959 24.50519043 46.81065918 25.13538086 46.16577148 25.78466797 C43.51894458 28.45246477 40.87688922 31.1248521 38.23828125 33.80078125 C36 36 36 36 33.125 38.3125 C30.85202807 40.17531159 28.95791914 42.13055227 27.0625 44.375 C23.35192978 48.72907001 19.35150509 52.76624008 15.3125 56.8125 C14.65838135 57.4710498 14.0042627 58.12959961 13.33032227 58.80810547 C12.70182373 59.43475098 12.0733252 60.06139648 11.42578125 60.70703125 C10.58140503 61.54971558 10.58140503 61.54971558 9.7199707 62.40942383 C4.75594781 67 4.75594781 67 0 67 C0 44.89 0 22.78 0 0 Z " fill="#F2F3F3" transform="translate(268,209)"/>
<path d="M0 0 C2.22265625 0.4921875 2.22265625 0.4921875 3.9375 1.125 C5.59877775 4.44755551 5.07911724 8.16434429 5.0703125 11.81640625 C5.07126923 12.67685043 5.07222595 13.53729462 5.07321167 14.42381287 C5.07389265 16.24372429 5.07204409 18.06363815 5.06787109 19.88354492 C5.06251517 22.67957979 5.0678222 25.47545448 5.07421875 28.27148438 C5.07355808 30.03645869 5.07227715 31.8014329 5.0703125 33.56640625 C5.07233673 34.40804825 5.07436096 35.24969025 5.07644653 36.11683655 C5.05245472 42.01004528 5.05245472 42.01004528 3.9375 43.125 C-5.02978366 44.51951852 -12.85461639 41.95025101 -21.32543945 39.33422852 C-27.20351791 37.54999153 -32.57794494 36.64686932 -38.73046875 36.3828125 C-42.53185758 35.96255846 -44.36715697 34.82034303 -47.0625 32.125 C-47.625 29.5625 -47.625 29.5625 -47.0625 27.125 C-45.07964507 24.09239834 -42.16154512 23.32297392 -38.90234375 22 C-33.81264513 19.57942146 -30.89779907 15.88830243 -28.0625 11.125 C-25.84814138 8.66081631 -23.46776119 6.40066738 -21.0625 4.125 C-20.588125 3.61066406 -20.11375 3.09632813 -19.625 2.56640625 C-14.0979133 -2.9763824 -7.02538745 -1.37599149 0 0 Z " fill="#F9F9F9" transform="translate(224.0625,395.875)"/>
<path d="M0 0 C2 2 2 2 2.22705078 5.07275391 C2.21657715 6.36101074 2.20610352 7.64926758 2.1953125 8.9765625 C2.1924826 9.66181 2.18965271 10.3470575 2.18673706 11.05307007 C2.17553281 13.24389027 2.15042859 15.43430316 2.125 17.625 C2.11497048 19.1093691 2.10584458 20.5937446 2.09765625 22.078125 C2.07559294 25.71888261 2.04106176 29.35940156 2 33 C-1.16908582 34.05636194 -3.60937967 34.2028513 -6.94140625 34.31640625 C-8.75922607 34.3796106 -8.75922607 34.3796106 -10.61376953 34.4440918 C-12.56839111 34.50270386 -12.56839111 34.50270386 -14.5625 34.5625 C-15.55585358 34.59327133 -15.55585358 34.59327133 -16.5692749 34.62466431 C-26.25285506 34.9212194 -35.9368403 35.12591538 -45.625 35.1875 C-46.71369385 35.20047119 -47.8023877 35.21344238 -48.92407227 35.22680664 C-49.93139404 35.22801514 -50.93871582 35.22922363 -51.9765625 35.23046875 C-53.29261475 35.23663208 -53.29261475 35.23663208 -54.63525391 35.24291992 C-57.17724953 34.98179194 -58.80844704 34.28110329 -61 33 C-59.57369692 29.66950878 -57.84985604 27.68261063 -55.125 25.3125 C-54.44695312 24.71050781 -53.76890625 24.10851562 -53.0703125 23.48828125 C-50.96386582 21.9740243 -49.49178661 21.55081599 -47 21 C-46.401875 20.38125 -45.80375 19.7625 -45.1875 19.125 C-42.91670297 16.91908289 -40.90488968 16.05072788 -37.98828125 14.9140625 C-34.81847529 13.45682361 -32.07613508 11.39886275 -29.21484375 9.41796875 C-27.19096668 8.12225909 -25.29196824 7.18852806 -23.0625 6.3125 C-19.75569691 5.22533546 -19.75569691 5.22533546 -18 2 C-12.23545204 -0.33034917 -6.16999201 -0.69578683 0 0 Z " fill="#F8F9F9" transform="translate(228,137)"/>
<path d="M0 0 C5.92659374 -0.14223825 11.46980199 0.33952378 17.3125 1.3125 C18.10978516 1.43044922 18.90707031 1.54839844 19.72851562 1.66992188 C20.49486328 1.79560547 21.26121094 1.92128906 22.05078125 2.05078125 C23.08199097 2.21574097 23.08199097 2.21574097 24.1340332 2.3840332 C26.42254126 3.1394834 27.36460197 4.25598869 29 6 C30.19045307 6.78475678 31.41053002 7.5259054 32.65234375 8.2265625 C33.34650391 8.6184375 34.04066406 9.0103125 34.75585938 9.4140625 C35.83577148 10.01347656 35.83577148 10.01347656 36.9375 10.625 C37.65357422 11.03234375 38.36964844 11.4396875 39.10742188 11.859375 C42.96722274 14.07408308 42.96722274 14.07408308 47.14550781 15.52246094 C49.73132842 16.18831996 50.34638299 17.43638729 51.8125 19.625 C54.43307362 23.35814452 57.31357488 26.38964291 60.6796875 29.45703125 C62 31 62 31 62 34 C60.56262294 34.02806159 59.12506577 34.04684998 57.6875 34.0625 C56.88699219 34.07410156 56.08648437 34.08570313 55.26171875 34.09765625 C52.62977304 34.01885548 50.11322379 33.80987247 47.5 33.53125 C38.13551624 32.63965811 28.71153504 32.63047441 19.3125 32.4375 C17.33918512 32.39422484 15.3658777 32.35060796 13.39257812 32.30664062 C8.59512911 32.2004845 3.79760258 32.09896229 -1 32 C-1.02469321 27.7641643 -1.04285671 23.52836658 -1.05493164 19.29248047 C-1.05996474 17.8510668 -1.06679173 16.40965824 -1.07543945 14.96826172 C-1.08754983 12.89809915 -1.09323847 10.82800399 -1.09765625 8.7578125 C-1.10289307 7.5114502 -1.10812988 6.26508789 -1.11352539 4.98095703 C-1 2 -1 2 0 0 Z " fill="#F9F9F9" transform="translate(268,139)"/>
<path d="M0 0 C10.65688885 -0.0694077 21.31372422 -0.12276419 31.97079277 -0.15543652 C36.91892333 -0.17111495 41.86689964 -0.19239277 46.81494141 -0.22631836 C51.58708341 -0.2588344 56.35907675 -0.2768366 61.13132095 -0.28463173 C62.95506253 -0.29018923 64.77879567 -0.30104119 66.60247421 -0.31719017 C69.1503657 -0.33886167 71.69763715 -0.34197129 74.24560547 -0.34057617 C75.00517548 -0.351362 75.76474548 -0.36214783 76.54733276 -0.3732605 C78.64645386 -0.36076355 78.64645386 -0.36076355 82 0 C84.42785052 3.64177579 84.27569009 6.31188454 84.24291992 10.51879883 C84.24481827 11.28369125 84.24671661 12.04858368 84.24867249 12.83665466 C84.25238799 15.37688329 84.2416469 17.91682774 84.23046875 20.45703125 C84.22927495 22.23849962 84.22882421 24.01996863 84.2290802 25.80143738 C84.22751286 29.55166526 84.219218 33.30179804 84.20581055 37.05200195 C84.18905137 41.79344354 84.18509342 46.53477951 84.185606 51.27624702 C84.18491059 84.0686481 84.18491059 84.0686481 83.61328125 98.32421875 C83.58316452 99.16990921 83.55304779 100.01559967 83.52201843 100.88691711 C83.3196099 104.94304168 82.94087477 108.39165609 81 112 C80.01 112.495 80.01 112.495 79 113 C78.5457666 113.76030518 78.0915332 114.52061035 77.62353516 115.30395508 C75.98734711 118.02101141 74.28674891 119.92862939 72.0234375 122.13671875 C71.270625 122.87857422 70.5178125 123.62042969 69.7421875 124.38476562 C68.96101563 125.14466797 68.17984375 125.90457031 67.375 126.6875 C65.81813812 128.21001933 64.26334169 129.73465449 62.7109375 131.26171875 C62.02306152 131.93162842 61.33518555 132.60153809 60.62646484 133.29174805 C58.91882516 134.91828941 58.91882516 134.91828941 58 137 C57.34 136.67 56.68 136.34 56 136 C59.25996909 132.07618266 62.64112775 128.31686954 66.2890625 124.75 C66.86825439 124.1830542 67.44744629 123.6161084 68.04418945 123.03198242 C69.20799488 121.900313 70.3782737 120.7752567 71.55541992 119.6574707 C74.65520514 116.64199598 76.7573016 114.26633401 78 110 C78.66 110 79.32 110 80 110 C80.82070478 107.13430347 81.11528386 104.62338828 81.08229065 101.64666748 C81.07173141 100.35105392 81.07173141 100.35105392 81.06095886 99.02926636 C81.04801285 98.08987213 81.03506683 97.15047791 81.02172852 96.18261719 C81.01212097 95.18716888 81.00251343 94.19172058 80.99261475 93.16610718 C80.95963774 89.87629088 80.91930026 86.5866079 80.87890625 83.296875 C80.85460388 81.01573151 80.83076038 78.73458308 80.80735779 76.45343018 C80.74452859 70.44956851 80.67545853 64.44579415 80.60510254 58.4420166 C80.53440866 52.31555151 80.46959798 46.18902452 80.40429688 40.0625 C80.27529951 28.04159864 80.13971108 16.02078128 80 4 C76.47338913 2.82446304 73.26252133 2.8244723 69.59106445 2.79467773 C68.46386993 2.77982834 68.46386993 2.77982834 67.31390381 2.76467896 C64.83039499 2.73309504 62.34686704 2.70831884 59.86328125 2.68359375 C58.14120487 2.66302154 56.4191335 2.64202499 54.69706726 2.62062073 C50.16466334 2.56542766 45.63221406 2.51600618 41.09973145 2.46777344 C36.47464969 2.41753824 31.8496338 2.36186271 27.22460938 2.30664062 C18.14979586 2.19909287 9.07492514 2.09764036 0 2 C0 1.34 0 0.68 0 0 Z " fill="#AAADAD" transform="translate(147,208)"/>
<path d="M0 0 C1.14250465 0.00333092 1.14250465 0.00333092 2.30809021 0.00672913 C3.16890701 0.00680466 4.02972382 0.00688019 4.91662598 0.00695801 C5.8520372 0.01211929 6.78744843 0.01728058 7.75120544 0.02259827 C8.70422043 0.02401321 9.65723541 0.02542816 10.63912964 0.02688599 C13.69605085 0.032503 16.75289996 0.04505836 19.80979919 0.05775452 C21.87685543 0.06276733 23.94391281 0.06733061 26.01097107 0.07142639 C31.08977507 0.08247795 36.16852489 0.09975397 41.24729919 0.12025452 C41.273513 1.53047199 41.29200337 2.94083403 41.30735779 4.35121155 C41.31850616 5.13658295 41.32965454 5.92195435 41.34114075 6.73112488 C41.2484682 9.09049257 40.86663843 11.141689 40.28636169 13.42494202 C38.43415963 21.86275143 38.77114895 30.64608032 38.62229919 39.24525452 C38.58405037 41.07860501 38.54499481 42.91193885 38.50511169 44.74525452 C38.40986452 49.2034502 38.32556358 53.66172968 38.24729919 58.12025452 C37.58729919 58.12025452 36.92729919 58.12025452 36.24729919 58.12025452 C35.15847528 51.3250158 35.06120357 44.65852728 35.06199646 37.79920959 C35.05983699 35.71915864 35.04171757 33.6396632 35.02268982 31.55970764 C35.01974934 30.18536044 35.01776893 28.81101079 35.01683044 27.43666077 C35.01272156 26.22437805 35.00861267 25.01209534 35.00437927 23.76307678 C35.36602538 16.85109275 36.3888004 9.98824484 37.24729919 3.12025452 C18.43729919 3.61525452 18.43729919 3.61525452 -0.75270081 4.12025452 C-1.08270081 9.40025452 -1.41270081 14.68025452 -1.75270081 20.12025452 C-2.08270081 21.11025452 -2.41270081 22.10025452 -2.75270081 23.12025452 C-2.84599806 24.6936335 -2.88339606 26.27067574 -2.88551331 27.84681702 C-2.8874469 28.78759094 -2.88938049 29.72836487 -2.89137268 30.69764709 C-2.88686096 31.70335754 -2.88234924 32.70906799 -2.87770081 33.74525452 C-2.87576721 34.78125793 -2.87383362 35.81726135 -2.87184143 36.88465881 C-2.83454544 43.59223912 -2.58383884 50.24951656 -2.1108551 56.93885803 C-1.5676896 64.99434492 -1.66776087 73.05096043 -1.75270081 81.12025452 C-7.41231842 70.81182432 -6.09373554 57.4384389 -6.06837463 46.03260803 C-6.06523322 43.08813261 -6.08867419 40.14468321 -6.11402893 37.20033264 C-6.15395992 24.94896494 -5.33849432 13.11959407 -2.75270081 1.12025452 C-1.75270081 0.12025452 -1.75270081 0.12025452 0 0 Z " fill="#A6ABAB" transform="translate(58.75270080566406,207.87974548339844)"/>
<path d="M0 0 C0 0.66 0 1.32 0 2 C-0.65484375 2.268125 -1.3096875 2.53625 -1.984375 2.8125 C-13.16078277 7.61140955 -22.46596474 14.06415353 -31.16772461 22.49462891 C-34.80887148 26 -34.80887148 26 -37 26 C-37.226875 26.556875 -37.45375 27.11375 -37.6875 27.6875 C-39.01309333 30.0230692 -40.54936051 31.628643 -42.46484375 33.48828125 C-48.19249652 39.12848894 -52.98353434 45.20245824 -57.4375 51.875 C-57.87473389 52.52968262 -58.31196777 53.18436523 -58.76245117 53.85888672 C-60.52424016 56.54846523 -61.97881639 58.93644917 -63 62 C-78.51 62 -94.02 62 -110 62 C-110 55.25 -110 55.25 -108 51.625 C-107.62875 50.93664062 -107.2575 50.24828125 -106.875 49.5390625 C-106.58625 49.03117187 -106.2975 48.52328125 -106 48 C-105.34 48 -104.68 48 -104 48 C-103.86271484 46.94232422 -103.86271484 46.94232422 -103.72265625 45.86328125 C-102.85992047 42.4449822 -101.38106777 40.12052045 -99.4375 37.1875 C-98.79683594 36.21167969 -98.15617187 35.23585937 -97.49609375 34.23046875 C-97.00238281 33.49441406 -96.50867188 32.75835937 -96 32 C-95.2265625 33.578125 -95.2265625 33.578125 -95 36 C-96.73384853 38.99550001 -98.62721825 41.7257656 -100.6640625 44.515625 C-101.07140625 45.1034375 -101.47875 45.69125 -101.8984375 46.296875 C-102.27661621 46.81604492 -102.65479492 47.33521484 -103.04443359 47.87011719 C-104.51865026 51.15603087 -104.65022996 54.42446994 -105 58 C-99.50073576 58.02470469 -94.00150378 58.04286223 -88.50219727 58.05493164 C-86.63109779 58.05996279 -84.76000225 58.06678835 -82.88891602 58.07543945 C-80.20067372 58.08755829 -77.51248336 58.09324047 -74.82421875 58.09765625 C-73.98662521 58.10281754 -73.14903168 58.10797882 -72.28605652 58.11329651 C-68.93624258 58.11362064 -66.20053544 58.06684515 -63 57 C-61.40222476 54.82248821 -61.40222476 54.82248821 -59.875 52.125 C-56.08879486 45.95131519 -51.65791077 40.52750225 -47 35 C-46.3296875 34.13890625 -45.659375 33.2778125 -44.96875 32.390625 C-43.16092456 30.19540839 -41.36402761 28.44246704 -39.1875 26.625 C-36.59244018 24.41896195 -34.19241857 22.18092504 -31.875 19.6875 C-27.50109907 15.21211645 -22.32479304 11.79446489 -17.20703125 8.234375 C-15.3866196 6.96607358 -13.58130311 5.67334098 -11.83203125 4.30859375 C-9.89428898 2.92449213 -8.11125763 2.11602223 -5.875 1.3125 C-5.19179687 1.06113281 -4.50859375 0.80976562 -3.8046875 0.55078125 C-2 0 -2 0 0 0 Z " fill="#ADB0B0" transform="translate(179,109)"/>
<path d="M0 0 C0.66 0.33 1.32 0.66 2 1 C1.32831787 1.5355249 0.65663574 2.0710498 -0.03540039 2.62280273 C-14.4455733 13.83083586 -14.4455733 13.83083586 -21.34375 29.81640625 C-21.32666346 36.98291378 -20.894288 44.4963529 -17.44018555 50.88500977 C-15.74615903 54.54903492 -15.64113105 57.09867201 -15.671875 61.12109375 C-15.67374817 61.78407974 -15.67562134 62.44706573 -15.67755127 63.13014221 C-15.68423631 64.52439446 -15.6980797 65.91862909 -15.71875 67.31274414 C-15.74986143 69.4280782 -15.75972597 71.54266292 -15.765625 73.65820312 C-15.82179459 82.00079825 -15.95692286 89.57187969 -19.1015625 97.40234375 C-21.19502607 103.45518407 -22.51197473 109.77597551 -24 116 C-24.66 116 -25.32 116 -26 116 C-26.0825 116.78375 -26.165 117.5675 -26.25 118.375 C-27.08519136 122.41175825 -28.47782213 125.9377287 -30.0625 129.73046875 C-30.77701098 131.46018075 -31.40818672 133.22456017 -32 135 C-32.99 135.33 -33.98 135.66 -35 136 C-34.67 134.35 -34.34 132.7 -34 131 C-33.34 131 -32.68 131 -32 131 C-31.90203125 130.35675781 -31.8040625 129.71351563 -31.703125 129.05078125 C-28.76049193 111.26814522 -28.76049193 111.26814522 -24.4765625 104.64453125 C-22.49286797 101.09172385 -21.90001158 97.53535075 -21.3125 93.5625 C-21.18657471 92.71864746 -21.06064941 91.87479492 -20.9309082 91.00537109 C-19.84908969 82.72729876 -19.70201982 74.45899671 -19.6875 66.125 C-19.68210205 64.82377197 -19.6767041 63.52254395 -19.67114258 62.18188477 C-19.71549472 56.27919311 -19.96423999 51.57766288 -22 46 C-24.12721074 38.44881957 -25.39458771 30.60418691 -23 23 C-16.96272183 13.96534077 -8.34244906 6.84879354 0 0 Z " fill="#9BA4A4" transform="translate(420,180)"/>
<path d="M0 0 C0.495 0.99 0.495 0.99 1 2 C-3.23550524 6.29341254 -7.60195207 10.43628713 -12 14.5625 C-12.69867188 15.22185547 -13.39734375 15.88121094 -14.1171875 16.56054688 C-16.91953552 19.1910528 -19.68431071 21.75335355 -22.71484375 24.12109375 C-25.40417584 26.33232236 -27.40616417 28.76989133 -29.5625 31.5 C-34.86393637 38.18881399 -34.86393637 38.18881399 -38 41 C-38.66 41 -39.32 41 -40 41 C-40.33 41.99 -40.66 42.98 -41 44 C-42.66666667 45.33333333 -44.33333333 46.66666667 -46 48 C-47.56594492 49.7221284 -49.05108979 51.49867841 -50.54296875 53.28515625 C-52.56505543 55.66503843 -54.76613828 57.81808856 -57 60 C-57.72832031 60.76183594 -58.45664062 61.52367187 -59.20703125 62.30859375 C-60.00496094 63.13488281 -60.80289062 63.96117187 -61.625 64.8125 C-62.75808594 65.99779297 -62.75808594 65.99779297 -63.9140625 67.20703125 C-66 69 -66 69 -69 69 C-68.85946128 71.62538284 -68.71281053 74.25017427 -68.5625 76.875 C-68.52318359 77.62136719 -68.48386719 78.36773437 -68.44335938 79.13671875 C-68.28426376 83.19986864 -68.28426376 83.19986864 -67 87 C-62.71 87 -58.42 87 -54 87 C-56.54787908 89.54787908 -58.51407433 89.79541673 -62 90.625 C-63.60875 91.01558594 -63.60875 91.01558594 -65.25 91.4140625 C-68 92 -68 92 -70 92 C-72.00936537 84.46751544 -73.86535753 73.96218814 -69.80029297 66.92236328 C-66.82632966 63.23708973 -63.32373443 60.23795364 -59.61889648 57.31030273 C-55.3046693 53.81845274 -51.80307735 49.65077382 -48.33203125 45.35546875 C-47.89246094 44.90816406 -47.45289063 44.46085937 -47 44 C-46.34 44 -45.68 44 -45 44 C-45 43.34 -45 42.68 -45 42 C-43.56640625 40.5546875 -43.56640625 40.5546875 -41.5625 38.875 C-40.47195313 37.946875 -40.47195313 37.946875 -39.359375 37 C-38.58078125 36.34 -37.8021875 35.68 -37 35 C-35.43297938 33.63015416 -33.87042814 32.25517795 -32.3125 30.875 C-31.60738281 30.25367188 -30.90226562 29.63234375 -30.17578125 28.9921875 C-26.81160107 25.9118789 -23.63745156 22.65507695 -20.45703125 19.38671875 C-15.23056146 14.05216834 -9.97264106 9.16973853 -3.99609375 4.65625 C-1.77733406 2.97596592 -1.77733406 2.97596592 0 0 Z " fill="#909596" transform="translate(338,264)"/>
<path d="M0 0 C1.50433594 0.34998047 1.50433594 0.34998047 3.0390625 0.70703125 C4.05742187 0.92746094 5.07578125 1.14789063 6.125 1.375 C8.6640625 2.51953125 8.6640625 2.51953125 9.80834961 4.52954102 C10.96459286 8.56962976 10.9309879 12.32255561 10.89453125 16.50390625 C10.89407303 17.36010559 10.89361481 18.21630493 10.8931427 19.09844971 C10.89013095 20.90044549 10.882277 22.70243892 10.86987305 24.50439453 C10.85153386 27.27385583 10.84936407 30.04298411 10.84960938 32.8125 C10.84469695 34.563805 10.83886984 36.31510772 10.83203125 38.06640625 C10.83091843 38.89863708 10.8298056 39.73086792 10.82865906 40.58831787 C10.78013702 46.40345673 10.78013702 46.40345673 9.6640625 47.51953125 C-4.07213939 49.43519807 -18.52107703 45.21036806 -31.3359375 40.51953125 C-31.9959375 39.85953125 -32.6559375 39.19953125 -33.3359375 38.51953125 C-25.73675316 38.09539073 -19.62693768 40.01714371 -12.46484375 42.38671875 C-5.0852345 44.67581468 -0.66334218 44.51953125 7.6640625 44.51953125 C7.6640625 30.98953125 7.6640625 17.45953125 7.6640625 3.51953125 C5.3540625 3.51953125 3.0440625 3.51953125 0.6640625 3.51953125 C0.0040625 3.18953125 -0.6559375 2.85953125 -1.3359375 2.51953125 C-4.95541141 1.45761948 -7.70063466 1.48021341 -11.3359375 2.51953125 C-18.1781243 7.10400165 -24.28443521 13.37278187 -28.3359375 20.51953125 C-31.0234375 22.83203125 -31.0234375 22.83203125 -33.3359375 24.51953125 C-33.9959375 24.18953125 -34.6559375 23.85953125 -35.3359375 23.51953125 C-29.63940946 17.08097049 -23.80392772 10.77338157 -17.6484375 4.76953125 C-17.13901611 4.24456055 -16.62959473 3.71958984 -16.10473633 3.17871094 C-10.86121669 -1.80970047 -6.63134079 -0.95509943 0 0 Z " fill="#4C5656" transform="translate(220.3359375,393.48046875)"/>
<path d="M0 0 C2.25008544 1.8492706 4.26439375 3.6559422 6.30859375 5.70703125 C6.87957291 6.26944016 7.45055206 6.83184906 8.03883362 7.41130066 C9.23628111 8.59730995 10.42858674 9.78853088 11.6159668 10.98461914 C13.43907195 12.81407743 15.2873146 14.61520568 17.13867188 16.41601562 C18.30109768 17.57389824 19.46196178 18.73335126 20.62109375 19.89453125 C21.17615097 20.43116898 21.73120819 20.9678067 22.30308533 21.52070618 C23.82202148 23.07739258 23.82202148 23.07739258 26 26 C25.83618164 28.8815918 25.83618164 28.8815918 25 31 C24.34 30.67 23.68 30.34 23 30 C22.887771 29.26370361 22.77554199 28.52740723 22.65991211 27.76879883 C21.40562737 22.50618573 16.79738167 18.97407691 13.07446289 15.22338867 C11.57280556 13.69796864 10.11254551 12.13936898 8.65039062 10.57617188 C2.70626152 4.28931547 2.70626152 4.28931547 -5.39453125 2.2265625 C-13.73596566 3.22766734 -19.78447438 6.54246531 -26 12 C-26.99 12 -27.98 12 -29 12 C-29 12.66 -29 13.32 -29 14 C-29.52207031 14.18433594 -30.04414063 14.36867188 -30.58203125 14.55859375 C-41.54858777 18.87991637 -49.78611906 27.5926961 -58.2734375 35.51953125 C-60.77403718 37.7944321 -63.33529508 39.92153017 -66 42 C-61.93140287 32.3893138 -50.99562028 25.25032799 -43 19 C-41.47439453 17.78376953 -41.47439453 17.78376953 -39.91796875 16.54296875 C-34.36550395 12.21972886 -29.64735417 9.21578472 -23 7 C-21.31295807 5.69254251 -19.64639965 4.35827971 -18 3 C-11.50678321 -0.7104096 -7.25165776 -3.05310101 0 0 Z " fill="#626C6D" transform="translate(170,72)"/>
<path d="M0 0 C0.495 0.99 0.495 0.99 1 2 C-0.18973718 4.3641821 -1.42833999 6.5646018 -2.8125 8.8125 C-3.22266357 9.48466553 -3.63282715 10.15683105 -4.05541992 10.84936523 C-11.81649315 23.3344421 -21.81844554 37.35719157 -33 47 C-33.66 47 -34.32 47 -35 47 C-35.66 48.65 -36.32 50.3 -37 52 C-37.66 52 -38.32 52 -39 52 C-39.2371875 52.58652344 -39.474375 53.17304688 -39.71875 53.77734375 C-41.27197996 56.47181889 -42.99106021 57.74188947 -45.5 59.5625 C-48.37514757 61.65818386 -49.99874622 62.99811934 -52 66 C-53.32 66 -54.64 66 -56 66 C-56 66.66 -56 67.32 -56 68 C-56.99580078 68.34611328 -56.99580078 68.34611328 -58.01171875 68.69921875 C-63.57564056 70.75421469 -66.82929269 72.71657087 -71 77 C-73.33284635 77.95971527 -75.51899899 78.46488214 -78 79 C-75.64722731 76.27573689 -73.37503669 75.1858237 -70 74 C-70 73.34 -70 72.68 -70 72 C-67.61016094 70.42294884 -65.21542917 68.95012187 -62.75 67.5 C-55.18884127 62.92915379 -48.64805047 57.80304559 -42 52 C-40.75283203 51.02160156 -40.75283203 51.02160156 -39.48046875 50.0234375 C-36.79628618 47.83382086 -34.41220338 45.48483708 -32 43 C-31.27941406 42.26523437 -30.55882812 41.53046875 -29.81640625 40.7734375 C-18.27522698 28.49218261 -8.42707973 14.57727767 0 0 Z " fill="#A3A6A6" transform="translate(419,340)"/>
<path d="M0 0 C0.75 1.75 0.75 1.75 1 4 C-0.31149169 5.35482291 -1.64900897 6.68456137 -3 8 C-4.14817262 9.62975213 -5.27146216 11.27719985 -6.375 12.9375 C-15.77275009 26.05227064 -29.49205071 36.44743468 -42.7734375 45.359375 C-45.04468736 46.9255259 -45.04468736 46.9255259 -46.8125 48.95703125 C-49.7620296 51.71168122 -53.00261621 53.21489097 -56.625 54.9375 C-58.0638917 55.63653431 -59.50269394 56.3357528 -60.94140625 57.03515625 C-61.63766113 57.37047363 -62.33391602 57.70579102 -63.05126953 58.05126953 C-65.57824616 59.28151649 -68.0682936 60.57985739 -70.5625 61.875 C-80.27914508 66.70882679 -80.27914508 66.70882679 -86 65 C-79.89624644 62.08882978 -73.85679125 59.21164868 -67.4375 57.0625 C-62.00450671 55.18492144 -57.30905765 52.40846742 -52.43359375 49.390625 C-50 48 -50 48 -48 48 C-48 47.34 -48 46.68 -48 46 C-45.35923218 44.12366497 -42.6411297 42.40473551 -39.90234375 40.67578125 C-26.58329777 31.84830002 -14.43724438 19.95428434 -5.6875 6.5625 C-4.01752798 4.02661656 -2.21945321 2.06092083 0 0 Z " fill="#6A7576" transform="translate(378,327)"/>
<path d="M0 0 C1.51689969 4.05213762 0.61955909 7.96269969 0.0625 12.125 C-1.9208079 29.09348676 -3.27203947 46.8259495 3 63 C3.46238064 64.51960772 3.92107193 66.04034601 4.375 67.5625 C6.06552573 72.61508253 8.50499006 77.32780162 10.890625 82.08203125 C12.01996179 85.05250512 12.19766202 86.12421852 11 89 C0.81697962 70.84028033 -4.40679652 54.32756859 -4.3125 33.3125 C-4.31048584 32.09385254 -4.30847168 30.87520508 -4.30639648 29.61962891 C-4.06878191 8.13756382 -4.06878191 8.13756382 0 0 Z " fill="#AFB4B4" transform="translate(142,214)"/>
<path d="M0 0 C5.39346988 -0.02464849 10.78690725 -0.04283531 16.18041992 -0.05493164 C18.01668875 -0.05997231 19.85295354 -0.06680477 21.68920898 -0.07543945 C24.32276401 -0.08751672 26.95626616 -0.09323081 29.58984375 -0.09765625 C30.41588608 -0.10281754 31.24192841 -0.10797882 32.09300232 -0.11329651 C34.06236368 -0.11349205 36.03161614 -0.06204152 38 0 C39 1 39 1 39.11523438 3.87695312 C39.10814453 5.16537109 39.10105469 6.45378906 39.09375 7.78125 C39.09016479 8.48882446 39.08657959 9.19639893 39.08288574 9.92541504 C39.01579121 19.11935375 38.75419499 28.30974228 38.5 37.5 C38.45162832 39.30598438 38.40345018 41.11197396 38.35546875 42.91796875 C38.23920142 47.2787087 38.1203462 51.63937079 38 56 C37.34 56 36.68 56 36 56 C34.91117609 49.20476128 34.81390437 42.53827277 34.81469727 35.67895508 C34.81253779 33.59890412 34.79441838 31.51940869 34.77539062 29.43945312 C34.77245015 28.06510592 34.77046974 26.69075628 34.76953125 25.31640625 C34.76542236 24.10412354 34.76131348 22.89184082 34.75708008 21.64282227 C35.11872619 14.73083823 36.14150121 7.86799032 37 1 C18.19 1.495 18.19 1.495 -1 2 C-0.67 1.34 -0.34 0.68 0 0 Z " fill="#B5B8B9" transform="translate(59,210)"/>
<path d="M0 0 C1.45936204 2.68461184 2.32125615 4.98682393 2.78125 8.00390625 C2.90113281 8.74447266 3.02101563 9.48503906 3.14453125 10.24804688 C3.38209656 11.79483197 3.61907287 13.34170763 3.85546875 14.88867188 C4.44574688 18.52872037 4.92633642 20.88950464 7 24 C7.26069641 25.97251892 7.26069641 25.97251892 7.2746582 28.24584961 C7.28419022 29.10202377 7.29372223 29.95819794 7.30354309 30.84031677 C7.30263168 31.76828568 7.30172028 32.69625458 7.30078125 33.65234375 C7.30506638 34.6216835 7.3093515 35.59102325 7.31376648 36.58973694 C7.31951934 38.65348533 7.32000304 40.717254 7.31567383 42.78100586 C7.31257114 45.86675279 7.33575734 48.95148522 7.36132812 52.03710938 C7.40848034 66.71977704 7.12861584 82.0587938 2 96 C0.68308984 92.17969831 1.15118012 88.80448203 1.55859375 84.828125 C1.66059837 83.8044986 1.66059837 83.8044986 1.7646637 82.76019287 C1.98247799 80.58941657 2.20985019 78.41976468 2.4375 76.25 C2.58722094 74.77480363 2.73631658 73.29954365 2.88476562 71.82421875 C3.24926832 68.21538061 3.62234699 64.60748845 4 61 C4.66 61 5.32 61 6 61 C5.91085395 46.09512949 5.10119078 31.86817973 1.7277832 17.31274414 C0.36250551 11.36698718 -0.24549018 6.10578152 0 0 Z " fill="#989B9C" transform="translate(438,196)"/>
<path d="M0 0 C4.43947626 0.50736871 6.70139932 2.03971734 10 5 C10.78375 5.639375 11.5675 6.27875 12.375 6.9375 C14 9 14 9 14.125 11.3125 C11.26887136 18.13547398 4.8491933 23.66580046 -1 28 C-1.66 28 -2.32 28 -3 28 C-3.24363281 28.57234375 -3.48726562 29.1446875 -3.73828125 29.734375 C-6.68145552 35.01933189 -11.65247489 39.3170836 -17.4375 41 C-22.98212247 39.44361475 -26.77638053 35.80720628 -31 32 C-29.2109375 31.31640625 -29.2109375 31.31640625 -27 31 C-25.0772099 32.36526877 -23.60845504 33.95471146 -21.9765625 35.65234375 C-19.14037473 37.58610814 -17.35839185 37.51134224 -14 37 C-11.74011018 35.17461693 -11.74011018 35.17461693 -9.9375 32.6875 C-7.20478525 29.21711991 -4.81721204 27.20223772 -1 25 C-0.3503125 23.88625 -0.3503125 23.88625 0.3125 22.75 C2.80009664 18.69613881 6.35589391 16.00357438 10 13 C9.68966931 9.72742181 9.34394165 8.33028801 6.93359375 6.015625 C6.10988281 5.43296875 5.28617188 4.8503125 4.4375 4.25 C2.94791787 3.18103311 1.46569471 2.10149178 0 1 C0 0.67 0 0.34 0 0 Z " fill="#626A6A" transform="translate(156,367)"/>
<path d="M0 0 C10.65688885 -0.0694077 21.31372422 -0.12276419 31.97079277 -0.15543652 C36.91892333 -0.17111495 41.86689964 -0.19239277 46.81494141 -0.22631836 C51.58708341 -0.2588344 56.35907675 -0.2768366 61.13132095 -0.28463173 C62.95506253 -0.29018923 64.77879567 -0.30104119 66.60247421 -0.31719017 C69.1503657 -0.33886167 71.69763715 -0.34197129 74.24560547 -0.34057617 C75.00517548 -0.351362 75.76474548 -0.36214783 76.54733276 -0.3732605 C78.64645386 -0.36076355 78.64645386 -0.36076355 82 0 C84.48104951 3.72157427 84.26798754 6.56405636 84.22705078 10.86791992 C84.22734283 11.66815079 84.22763489 12.46838165 84.22793579 13.29286194 C84.22654205 15.93884104 84.21097884 18.58453882 84.1953125 21.23046875 C84.19158253 23.06463975 84.18873548 24.89881274 84.18673706 26.73298645 C84.17909938 31.56140643 84.15944972 36.38970616 84.1373291 41.21807861 C84.11687359 46.14471815 84.10773597 51.07137711 84.09765625 55.99804688 C84.07620397 65.66541743 84.04206637 75.33269872 84 85 C83.67 85 83.34 85 83 85 C82.99191315 84.00441574 82.98382629 83.00883148 82.97549438 81.983078 C82.89807639 72.6097139 82.81034819 63.23649573 82.71247292 53.86332226 C82.66248463 49.04424619 82.61615484 44.22519231 82.578125 39.40600586 C82.54130415 34.756954 82.49495299 30.10808668 82.44193649 25.45919228 C82.4233755 23.68378238 82.40827386 21.9083329 82.39665604 20.132864 C82.37982267 17.64982499 82.35079509 15.16721021 82.31884766 12.68432617 C82.31668747 11.94705292 82.31452728 11.20977966 82.31230164 10.45016479 C82.25143437 6.75752316 82.10393048 5.15589573 80 2 C77.40050442 1.68376729 75.0334689 1.56258239 72.42919922 1.56762695 C71.64862152 1.5574353 70.86804382 1.54724365 70.06381226 1.53674316 C67.47736551 1.50648926 64.89128831 1.49732857 62.3046875 1.48828125 C60.51391354 1.47144371 58.72315147 1.45329473 56.93240356 1.43388367 C52.21421014 1.38627694 47.49606488 1.3565368 42.77770996 1.33044434 C37.96499107 1.30069247 33.15243836 1.25414381 28.33984375 1.20898438 C18.8933159 1.12282996 9.44675396 1.05553885 0 1 C0 0.67 0 0.34 0 0 Z " fill="#546061" transform="translate(147,208)"/>
<path d="M0 0 C0.33 0 0.66 0 1 0 C2.0293873 41.13748403 2.0293873 41.13748403 -4 58 C-4.33 58.99 -4.66 59.98 -5 61 C-5.66 61 -6.32 61 -7 61 C-7.12375 62.175625 -7.12375 62.175625 -7.25 63.375 C-8.08519136 67.41175825 -9.47782213 70.9377287 -11.0625 74.73046875 C-11.77701098 76.46018075 -12.40818672 78.22456017 -13 80 C-14.485 80.495 -14.485 80.495 -16 81 C-15.67 79.35 -15.34 77.7 -15 76 C-14.34 76 -13.68 76 -13 76 C-12.90203125 75.35675781 -12.8040625 74.71351563 -12.703125 74.05078125 C-9.75337301 56.22512482 -9.75337301 56.22512482 -5.47265625 49.65625 C-3.44327243 45.99582294 -2.95596036 42.48818292 -2.375 38.375 C-2.25020264 37.52776367 -2.12540527 36.68052734 -1.99682617 35.80761719 C-0.40233219 23.94466664 -0.24440439 11.95285981 0 0 Z " fill="#858F90" transform="translate(401,235)"/>
<path d="M0 0 C-0.94359375 0.27263672 -0.94359375 0.27263672 -1.90625 0.55078125 C-11.69394274 2.92363477 -11.69394274 2.92363477 -20 8 C-21.18882673 12.14330735 -21.11473765 16.20084933 -21.09765625 20.48828125 C-21.0962413 21.19147995 -21.09482635 21.89467865 -21.09336853 22.6191864 C-21.08780109 24.85033544 -21.07525475 27.08138164 -21.0625 29.3125 C-21.05748079 30.83137875 -21.05291862 32.35025909 -21.04882812 33.86914062 C-21.03784236 37.57946012 -21.02060034 41.28972001 -21 45 C-18.36 45 -15.72 45 -13 45 C-13 45.33 -13 45.66 -13 46 C-16.63 46 -20.26 46 -24 46 C-24 31.81 -24 17.62 -24 3 C-13.95900439 0.76866764 -13.95900439 0.76866764 -10.0625 0.4375 C-1.11821086 -0.33546326 -1.11821086 -0.33546326 0 0 Z " fill="#D8D9D9" transform="translate(292,394)"/>
<path d="M0 0 C0.33 0 0.66 0 1 0 C1 10.23 1 20.46 1 31 C-2.16908582 32.05636194 -4.60937967 32.2028513 -7.94140625 32.31640625 C-9.1536084 32.35838135 -10.36581055 32.40035645 -11.61474609 32.44360352 C-12.91750488 32.48283936 -14.22026367 32.5220752 -15.5625 32.5625 C-16.22340637 32.58367889 -16.88431274 32.60485779 -17.56524658 32.62667847 C-31.0434927 33.05627291 -44.51550975 33.11199743 -58 33 C-58 32.67 -58 32.34 -58 32 C-57.25314941 31.97494385 -56.50629883 31.9498877 -55.73681641 31.92407227 C-52.36602733 31.80831787 -48.99553217 31.68549872 -45.625 31.5625 C-44.449375 31.52318359 -43.27375 31.48386719 -42.0625 31.44335938 C-40.94101563 31.40146484 -39.81953125 31.35957031 -38.6640625 31.31640625 C-37.62717285 31.27974854 -36.5902832 31.24309082 -35.52197266 31.20532227 C-33.00574834 31.15835777 -33.00574834 31.15835777 -31 30 C-28.82449886 29.77627304 -26.64327619 29.60717019 -24.4609375 29.46484375 C-23.15898437 29.37783203 -21.85703125 29.29082031 -20.515625 29.20117188 C-19.13542255 29.11318888 -17.75521413 29.02529947 -16.375 28.9375 C-14.98695324 28.84609599 -13.59893198 28.75430391 -12.2109375 28.66210938 C-8.80754195 28.43757981 -5.40380074 28.21830104 -2 28 C-1.34 18.76 -0.68 9.52 0 0 Z " fill="#AAAFAF" transform="translate(229,139)"/>
<path d="M0 0 C1.79133978 -0.05391993 3.58313899 -0.09275571 5.375 -0.125 C6.37273437 -0.14820313 7.37046875 -0.17140625 8.3984375 -0.1953125 C11 0 11 0 13 2 C13.21169748 4.48542247 13.3039953 6.85674843 13.30078125 9.34375 C13.30506638 10.06864624 13.3093515 10.79354248 13.31376648 11.54040527 C13.31951167 13.07363846 13.32000864 14.6068989 13.31567383 16.14013672 C13.31251206 18.49103044 13.33597461 20.84066808 13.36132812 23.19140625 C13.36360087 24.67968591 13.36430473 26.16796896 13.36328125 27.65625 C13.372491 28.36148804 13.38170074 29.06672607 13.39118958 29.79333496 C13.37231445 31.77539063 13.37231445 31.77539063 13 35 C9.57312252 37.28458499 8.36059689 37.24451452 4.33520508 37.22705078 C3.17422806 37.22689972 2.01325104 37.22674866 0.8170929 37.22659302 C-0.43610245 37.21627045 -1.68929779 37.20594788 -2.98046875 37.1953125 C-4.26359451 37.1924826 -5.54672028 37.18965271 -6.86872864 37.18673706 C-10.27676202 37.17910797 -13.68462441 37.15946587 -17.09259033 37.1373291 C-20.57146898 37.11685497 -24.05037532 37.107732 -27.52929688 37.09765625 C-34.35293474 37.07621918 -41.17645916 37.04209205 -48 37 C-48.33 36.34 -48.66 35.68 -49 35 C-48.32461182 35.00523682 -47.64922363 35.01047363 -46.95336914 35.01586914 C-27.27852869 35.14590448 -7.66024424 34.69817263 12 34 C11.88202982 29.60324012 11.75780274 25.20671601 11.62768555 20.81030273 C11.58428187 19.31360731 11.54261087 17.81686061 11.50268555 16.32006836 C11.44511384 14.17285688 11.38138284 12.02590479 11.31640625 9.87890625 C11.26141968 7.93866577 11.26141968 7.93866577 11.20532227 5.95922852 C11.3332722 3.11444992 11.3332722 3.11444992 10 2 C8.31816052 1.76712992 6.6287584 1.58735834 4.9375 1.4375 C4.01839844 1.35371094 3.09929687 1.26992187 2.15234375 1.18359375 C1.08693359 1.09271484 1.08693359 1.09271484 0 1 C0 0.67 0 0.34 0 0 Z " fill="#2E3536" transform="translate(218,136)"/>
<path d="M0 0 C0.66 0.33 1.32 0.66 2 1 C-1.32151495 4.36930654 -4.72879027 7.59097184 -8.25 10.75 C-14.44563545 16.34670077 -20.30507023 22.26374017 -26.12402344 28.24902344 C-29.52859352 31.71083991 -32.60372661 34.79756167 -37 37 C-33.40549263 28.92181764 -26.61784607 22.17286482 -19.88671875 16.60546875 C-18.02198373 15.01870666 -16.36921416 13.34008385 -14.6875 11.5625 C-10.29410907 7.06693719 -5.14296171 3.58054296 0 0 Z " fill="#2A3131" transform="translate(163,118)"/>
<path d="M0 0 C0.33 0 0.66 0 1 0 C1 12.87 1 25.74 1 39 C-9.93739595 39 -17.72641257 38.58907467 -27.8125 35.625 C-29.5459668 35.14933594 -29.5459668 35.14933594 -31.31445312 34.6640625 C-39.69537628 32.30462372 -39.69537628 32.30462372 -42 30 C-34.40081566 29.57585948 -28.29100018 31.49761246 -21.12890625 33.8671875 C-13.749297 36.15628343 -9.32740468 36 -1 36 C-0.67 24.12 -0.34 12.24 0 0 Z " fill="#7C8282" transform="translate(229,402)"/>
<path d="M0 0 C0.81959198 -0.00014603 1.63918396 -0.00029205 2.48361206 -0.0004425 C5.19987612 0.00025565 7.9160721 0.00804351 10.63232422 0.01586914 C12.51276614 0.01773367 14.39320854 0.01915741 16.27365112 0.02015686 C21.22863094 0.02397932 26.18358155 0.03380731 31.1385498 0.04486084 C36.19246017 0.05508078 41.24637525 0.05965573 46.30029297 0.06469727 C56.22087873 0.0754298 66.1414428 0.09250299 76.06201172 0.11352539 C76.06201172 0.44352539 76.06201172 0.77352539 76.06201172 1.11352539 C49.00201172 1.11352539 21.94201172 1.11352539 -5.93798828 1.11352539 C-5.93798828 1.77352539 -5.93798828 2.43352539 -5.93798828 3.11352539 C-6.87384766 3.98750977 -6.87384766 3.98750977 -7.82861328 4.87915039 C-10.30483848 7.50211486 -10.85947281 9.38376043 -11.68798828 12.86352539 C-11.93033203 13.84836914 -12.17267578 14.83321289 -12.42236328 15.84790039 C-12.67759766 16.96938477 -12.67759766 16.96938477 -12.93798828 18.11352539 C-13.26798828 18.11352539 -13.59798828 18.11352539 -13.93798828 18.11352539 C-14.4414923 11.1623727 -14.07299284 6.8295611 -9.93798828 1.11352539 C-6.7980116 -0.45646295 -3.44622467 -0.01592006 0 0 Z " fill="#14191A" transform="translate(152.93798828125,206.886474609375)"/>
<path d="M0 0 C0.67417969 0.14050781 1.34835937 0.28101563 2.04296875 0.42578125 C2.38600235 11.89834943 2.46515372 24.03326006 -2.95703125 34.42578125 C-3.61703125 35.74578125 -4.27703125 37.06578125 -4.95703125 38.42578125 C-4.95703125 35.45578125 -4.95703125 32.48578125 -4.95703125 29.42578125 C-4.62703125 29.42578125 -4.29703125 29.42578125 -3.95703125 29.42578125 C-1.80040359 20.37879603 -0.40508576 11.7267749 0.04296875 2.42578125 C-4.50525326 4.83068528 -7.7305472 7.96249455 -11.26953125 11.61328125 C-11.81931641 12.17208984 -12.36910156 12.73089844 -12.93554688 13.30664062 C-14.28066821 14.67515537 -15.61949768 16.04984958 -16.95703125 17.42578125 C-16.95703125 13.23036685 -15.06138683 12.08236195 -12.22460938 9.18554688 C-11.57943359 8.54294922 -10.93425781 7.90035156 -10.26953125 7.23828125 C-9.64369141 6.58408203 -9.01785156 5.92988281 -8.37304688 5.25585938 C-3.66456793 0.52765906 -3.66456793 0.52765906 0 0 Z " fill="#767E7F" transform="translate(358.95703125,243.57421875)"/>
<path d="M0 0 C0.76166977 0.00222061 1.52333954 0.00444122 2.30809021 0.00672913 C3.16890701 0.00680466 4.02972382 0.00688019 4.91662598 0.00695801 C5.8520372 0.01211929 6.78744843 0.01728058 7.75120544 0.02259827 C8.70422043 0.02401321 9.65723541 0.02542816 10.63912964 0.02688599 C13.69605085 0.032503 16.75289996 0.04505836 19.80979919 0.05775452 C21.87685543 0.06276733 23.94391281 0.06733061 26.01097107 0.07142639 C31.08977507 0.08247795 36.16852489 0.09975397 41.24729919 0.12025452 C41.30129656 1.57818336 41.34009096 3.03668163 41.37229919 4.49525452 C41.39550232 5.30736389 41.41870544 6.11947327 41.44261169 6.95619202 C41.24729919 9.12025452 41.24729919 9.12025452 39.24729919 11.12025452 C38.75229919 7.16025452 38.75229919 7.16025452 38.24729919 3.12025452 C32.89047786 3.04613402 27.53395457 2.99166676 22.17674255 2.95545959 C20.35409852 2.94036691 18.53149084 2.91989056 16.70896912 2.89393616 C14.09014419 2.85757349 11.47179912 2.84053328 8.85276794 2.82728577 C8.03704819 2.81180191 7.22132843 2.79631805 6.38088989 2.78036499 C2.09699589 2.63705389 2.09699589 2.63705389 -1.49200439 4.64154053 C-1.90803421 5.12951614 -2.32406403 5.61749176 -2.75270081 6.12025452 C-2.79542181 4.45413547 -2.79333913 2.78642567 -2.75270081 1.12025452 C-1.75270081 0.12025452 -1.75270081 0.12025452 0 0 Z " fill="#727A7A" transform="translate(58.75270080566406,207.87974548339844)"/>
<path d="M0 0 C0.80554106 2.29865426 1.20584433 3.50109031 0.2590332 5.79589844 C-0.13968994 6.3943457 -0.53841309 6.99279297 -0.94921875 7.609375 C-1.38556641 8.28226563 -1.82191406 8.95515625 -2.27148438 9.6484375 C-2.97241211 10.68871094 -2.97241211 10.68871094 -3.6875 11.75 C-4.59086859 13.11740108 -5.49062721 14.48719408 -6.38671875 15.859375 C-6.79108154 16.46233398 -7.19544434 17.06529297 -7.61206055 17.68652344 C-9.60747203 21.01256024 -11.26539988 24.53079977 -13 28 C2.18 28.33 17.36 28.66 33 29 C33 29.33 33 29.66 33 30 C17.49 30 1.98 30 -14 30 C-14 23.25 -14 23.25 -12 19.625 C-11.62875 18.93664062 -11.2575 18.24828125 -10.875 17.5390625 C-10.58625 17.03117187 -10.2975 16.52328125 -10 16 C-9.34 16 -8.68 16 -8 16 C-7.86271484 14.94232422 -7.86271484 14.94232422 -7.72265625 13.86328125 C-6.85992047 10.4449822 -5.38106777 8.12052045 -3.4375 5.1875 C-2.79683594 4.21167969 -2.15617187 3.23585937 -1.49609375 2.23046875 C-1.00238281 1.49441406 -0.50867188 0.75835937 0 0 Z " fill="#778182" transform="translate(83,141)"/>
<path d="M0 0 C0.5534764 2.07553648 1 3.84365964 1 6 C14.86 6 28.72 6 43 6 C43 6.99 43 7.98 43 9 C36.77035385 9.02529951 30.54072088 9.04284549 24.31103516 9.05493164 C22.19058741 9.05996872 20.07014315 9.06679859 17.94970703 9.07543945 C14.90656678 9.08753234 11.86347234 9.09323447 8.8203125 9.09765625 C7.86818878 9.10281754 6.91606506 9.10797882 5.93508911 9.11329651 C5.05432709 9.11337204 4.17356506 9.11344757 3.26611328 9.11352539 C2.10029221 9.11685631 2.10029221 9.11685631 0.91091919 9.12025452 C-1 9 -1 9 -3 8 C-1.125 2.25 -1.125 2.25 0 0 Z " fill="#D4D4D4" transform="translate(73,161)"/>
<path d="M0 0 C0 0.99 0 1.98 0 3 C-1.63462879 4.43321917 -3.30816397 5.82228232 -5 7.1875 C-8.32074246 10.3489967 -10.25424438 12.58587773 -10.69921875 17.14453125 C-10.93383492 24.28632542 -10.93383492 24.28632542 -9 31 C-4.71 31 -0.42 31 4 31 C1.45212092 33.54787908 -0.51407433 33.79541673 -4 34.625 C-5.60875 35.01558594 -5.60875 35.01558594 -7.25 35.4140625 C-10 36 -10 36 -12 36 C-13.94770786 28.69865023 -14.93069756 20.38260549 -13 13 C-9.80709439 7.61760382 -4.91253845 3.75863175 0 0 Z " fill="#8D9596" transform="translate(280,320)"/>
<path d="M0 0 C2.87299765 1.43649883 3.30297023 3.35854307 4.625 6.25 C5.07101562 7.20390625 5.51703125 8.1578125 5.9765625 9.140625 C6.99617173 11.98930421 7.20762094 14.00588745 7 17 C7.66 17 8.32 17 9 17 C8.67 17.99 8.34 18.98 8 20 C6.6078125 19.938125 6.6078125 19.938125 5.1875 19.875 C1.84190281 19.72863661 1.84190281 19.72863661 -1 22 C-1 20.68 -1 19.36 -1 18 C-1.73605469 17.95101562 -2.47210938 17.90203125 -3.23046875 17.8515625 C-4.20628906 17.77679688 -5.18210937 17.70203125 -6.1875 17.625 C-7.15042969 17.55539063 -8.11335938 17.48578125 -9.10546875 17.4140625 C-12.01508938 16.99784147 -14.32890774 16.20125904 -17 15 C-13.25 13.875 -13.25 13.875 -11 15 C-9.35857459 15.14640501 -7.7101859 15.22096589 -6.0625 15.25 C-5.18722656 15.27578125 -4.31195313 15.3015625 -3.41015625 15.328125 C-0.95879159 15.18459942 -0.95879159 15.18459942 0.83203125 13.6953125 C2.34534617 11.87769775 2.34534617 11.87769775 1.75 8.625 C1.5025 7.42875 1.255 6.2325 1 5 C0.814375 4.030625 0.62875 3.06125 0.4375 2.0625 C0.293125 1.381875 0.14875 0.70125 0 0 Z " fill="#768181" transform="translate(424,157)"/>
<path d="M0 0 C0.33 0 0.66 0 1 0 C1.02505615 0.74685059 1.0501123 1.49370117 1.07592773 2.26318359 C1.19168213 5.63397267 1.31450128 9.00446783 1.4375 12.375 C1.47681641 13.550625 1.51613281 14.72625 1.55664062 15.9375 C1.59853516 17.05898437 1.64042969 18.18046875 1.68359375 19.3359375 C1.72025146 20.37282715 1.75690918 21.4097168 1.79467773 22.47802734 C1.84164223 24.99425166 1.84164223 24.99425166 3 27 C4.32390747 27.03758423 4.32390747 27.03758423 5.67456055 27.07592773 C8.96406615 27.1713353 12.25341182 27.27055193 15.54272461 27.37231445 C16.96357775 27.41549804 18.38447726 27.45718408 19.80541992 27.49731445 C21.8534947 27.55542095 23.90133965 27.61899638 25.94921875 27.68359375 C27.17987061 27.72025146 28.41052246 27.75690918 29.6784668 27.79467773 C32.55826984 27.97269423 35.19587088 28.34609105 38 29 C38 29.33 38 29.66 38 30 C25.46 30 12.92 30 0 30 C0 20.1 0 10.2 0 0 Z " fill="#B6BDBE" transform="translate(267,141)"/>
<path d="M0 0 C0.66 0.33 1.32 0.66 2 1 C-20.82894737 25.67105263 -20.82894737 25.67105263 -29 31 C-27.33773041 26.87436705 -24.38103063 23.93250269 -21.375 20.75 C-20.83593018 20.1737085 -20.29686035 19.59741699 -19.74145508 19.00366211 C-13.44832146 12.30294455 -7.06704158 5.88920132 0 0 Z " fill="#C7CACA" transform="translate(124,95)"/>
<path d="M0 0 C1.23876867 4.22090323 0.67582332 7.95153143 0.125 12.25 C-1.23829706 23.8036562 -1.63296549 35.37873253 -2 47 C-2.66 47 -3.32 47 -4 47 C-4.77499236 9.54998471 -4.77499236 9.54998471 0 0 Z " fill="#CBCECE" transform="translate(142,214)"/>
<path d="M0 0 C-0.66 0 -1.32 0 -2 0 C-2 0.99 -2 1.98 -2 3 C-3.24136719 3.33773438 -4.48273438 3.67546875 -5.76171875 4.0234375 C-7.4036876 4.4738061 -9.04561237 4.92433539 -10.6875 5.375 C-11.50412109 5.59671875 -12.32074219 5.8184375 -13.16210938 6.046875 C-16.42823233 6.94605055 -19.58529334 7.82839724 -22.71875 9.125 C-25.45041623 10.17276239 -27.90001857 10.41445917 -30.8125 10.625 C-31.78832031 10.69976562 -32.76414062 10.77453125 -33.76953125 10.8515625 C-34.87361328 10.92503906 -34.87361328 10.92503906 -36 11 C-32.99559979 8.99706653 -31.29006055 8.50728374 -27.8125 7.875 C-26.91144531 7.70742188 -26.01039063 7.53984375 -25.08203125 7.3671875 C-24.39496094 7.24601562 -23.70789063 7.12484375 -23 7 C-23 6.34 -23 5.68 -23 5 C-22.24074219 4.80664062 -21.48148437 4.61328125 -20.69921875 4.4140625 C-19.70535156 4.15367187 -18.71148437 3.89328125 -17.6875 3.625 C-16.20830078 3.24214844 -16.20830078 3.24214844 -14.69921875 2.8515625 C-11.8194184 2.08086826 -11.8194184 2.08086826 -9 0 C-5.62709561 -0.95133201 -3.33379087 -1.11126362 0 0 Z " fill="#A9ADAE" transform="translate(325,427)"/>
<path d="M0 0 C0 3 0 3 -2.640625 5.671875 C-3.83346299 6.70985805 -5.03737495 7.73520359 -6.25 8.75 C-6.88172119 9.28496094 -7.51344238 9.81992187 -8.16430664 10.37109375 C-13.75845948 15.00170404 -19.58130419 18.5939656 -26 22 C-27.25271563 22.72449125 -28.50317626 23.45291536 -29.75 24.1875 C-31.35875 25.0846875 -31.35875 25.0846875 -33 26 C-33.67933594 26.38414062 -34.35867188 26.76828125 -35.05859375 27.1640625 C-35.76113281 27.54304688 -36.46367187 27.92203125 -37.1875 28.3125 C-37.82042969 28.65925781 -38.45335937 29.00601562 -39.10546875 29.36328125 C-41.43663576 30.14674563 -42.70879911 29.78744155 -45 29 C-39.25 26 -39.25 26 -37 26 C-37 25.34 -37 24.68 -37 24 C-36.26136719 23.72027344 -35.52273438 23.44054687 -34.76171875 23.15234375 C-21.11559625 17.75978454 -10.84390722 9.64078759 0 0 Z " fill="#B1B4B4" transform="translate(329,321)"/>
<path d="M0 0 C3.3 0 6.6 0 10 0 C10 0.33 10 0.66 10 1 C7.03 1 4.06 1 1 1 C1 21.13 1 41.26 1 62 C2.65 62 4.3 62 6 62 C5.01 63.32 4.02 64.64 3 66 C2.01 65.67 1.02 65.34 0 65 C0 43.55 0 22.1 0 0 Z " fill="#DEDEDE" transform="translate(269,210)"/>
<path d="M0 0 C0 4.29 0 8.58 0 13 C-0.33 13 -0.66 13 -1 13 C-1 10.03 -1 7.06 -1 4 C-5.99544118 8.2514393 -10.71464579 12.64540876 -15.23828125 17.3984375 C-17 19 -17 19 -20 20 C-18.72875096 16.35297407 -17.34803501 13.96496188 -14.62890625 11.23046875 C-13.97212891 10.56982422 -13.31535156 9.90917969 -12.63867188 9.22851562 C-11.95353516 8.55498047 -11.26839844 7.88144531 -10.5625 7.1875 C-9.88123047 6.49462891 -9.19996094 5.80175781 -8.49804688 5.08789062 C-7.83998047 4.43369141 -7.18191406 3.77949219 -6.50390625 3.10546875 C-5.90392822 2.50887451 -5.3039502 1.91228027 -4.68579102 1.29760742 C-3 0 -3 0 0 0 Z " fill="#D8D9D9" transform="translate(359,246)"/>
<path d="M0 0 C0.54527344 0.23074219 1.09054687 0.46148437 1.65234375 0.69921875 C-28.0609361 18.79487387 -28.0609361 18.79487387 -36.65625 17.296875 C-37.21441406 17.09964844 -37.77257812 16.90242188 -38.34765625 16.69921875 C-32.24390269 13.78804853 -26.2044475 10.91086743 -19.78515625 8.76171875 C-14.36801834 6.90305266 -9.77430975 4.0905995 -4.9765625 0.9921875 C-2.34765625 -0.30078125 -2.34765625 -0.30078125 0 0 Z " fill="#8E9596" transform="translate(330.34765625,375.30078125)"/>
<path d="M0 0 C0.66 0 1.32 0 2 0 C2.86588921 26.20116618 2.86588921 26.20116618 -3 35 C-2.47798129 23.25457893 -1.52007047 11.65879293 0 0 Z " fill="#BABCBC" transform="translate(442,257)"/>
<path d="M0 0 C-4.26616316 1.13764351 -7.56486311 2 -12 2 C-11.88178327 7.35700426 -11.75753701 12.71382175 -11.62768555 18.07055664 C-11.58435713 19.89310904 -11.54268053 21.71570148 -11.50268555 23.53833008 C-11.44493238 26.15718661 -11.38125244 28.77584195 -11.31640625 31.39453125 C-11.29969376 32.21025101 -11.28298126 33.02597076 -11.26576233 33.8664093 C-11.17986755 37.14179544 -11.04247866 39.87256401 -10 43 C-7.36 43 -4.72 43 -2 43 C-2 43.33 -2 43.66 -2 44 C-5.63 44 -9.26 44 -13 44 C-13 29.81 -13 15.62 -13 1 C-4 -1 -4 -1 0 0 Z " fill="#999FA0" transform="translate(281,396)"/>
<path d="M0 0 C2.2477975 2.05233685 3.0022242 3.00667261 4 6 C4.70769531 6.66515625 4.70769531 6.66515625 5.4296875 7.34375 C7.49930315 9.52662819 8.15686581 11.66420535 9.125 14.5 C9.45757812 15.4590625 9.79015625 16.418125 10.1328125 17.40625 C10.75611148 19.27053162 11.37838536 21.13515609 12 23 C12.66 23 13.32 23 14 23 C14.33 24.65 14.66 26.3 15 28 C14.34 27.67 13.68 27.34 13 27 C13 26.34 13 25.68 13 25 C12.01 24.67 11.02 24.34 10 24 C8.98470459 21.67328135 7.98511802 19.3396553 7 17 C6.01 16.34 5.02 15.68 4 15 C1.79977952 10.29867419 0.65751449 5.12861302 0 0 Z " fill="#7A8283" transform="translate(68,321)"/>
<path d="M0 0 C2.3125 0.1875 2.3125 0.1875 4 1 C3.29713867 1.38051514 2.59427734 1.76103027 1.87011719 2.15307617 C-1.43646488 4.28086567 -4.14153302 6.79922883 -6.921875 9.55078125 C-7.46732971 10.08720749 -8.01278442 10.62363373 -8.57476807 11.17631531 C-9.72034609 12.30744784 -10.8631866 13.44135887 -12.00341797 14.57788086 C-13.74651734 16.30904119 -15.50741061 18.02065455 -17.26953125 19.73242188 C-18.38395784 20.83738771 -19.49727782 21.943471 -20.609375 23.05078125 C-21.13537292 23.55724686 -21.66137085 24.06371246 -22.20330811 24.58552551 C-25.49037814 27.91384626 -26.70995494 30.32584574 -27 35 C-27.33 35 -27.66 35 -28 35 C-28.13536774 33.56510191 -28.23217143 32.12652893 -28.3125 30.6875 C-28.37050781 29.88699219 -28.42851562 29.08648437 -28.48828125 28.26171875 C-28.24658203 27.14216797 -28.24658203 27.14216797 -28 26 C-26.34276915 24.98443922 -24.67444922 23.98691316 -23 23 C-21.5402529 21.69508466 -20.124121 20.34010894 -18.75 18.9453125 C-17.9765625 18.16542969 -17.203125 17.38554687 -16.40625 16.58203125 C-15.6121875 15.77121094 -14.818125 14.96039063 -14 14.125 C-12.80890625 12.92037109 -12.80890625 12.92037109 -11.59375 11.69140625 C-7.46650461 7.53222134 -7.46650461 7.53222134 -3.40551758 3.30883789 C-2.31446156 2.16223281 -1.16410016 1.07236994 0 0 Z " fill="#F0F1F1" transform="translate(427,177)"/>
<path d="M0 0 C4.49034767 0.51318259 6.55889372 2.17030908 10 5 C11.78797515 6.25527459 13.57974799 7.50515477 15.375 8.75 C20.33382509 12.31981725 24.25250939 16.19093355 28 21 C23.98854581 21 23.22700153 19.61835385 20.375 16.875 C16.43322496 13.20447449 12.48125655 10.12629717 7.91015625 7.2890625 C6.01824948 6.0123156 4.55723358 4.6607491 3 3 C2.443125 2.443125 1.88625 1.88625 1.3125 1.3125 C0.879375 0.879375 0.44625 0.44625 0 0 Z " fill="#939B9B" transform="translate(327,113)"/>
<path d="M0 0 C0 0.99 0 1.98 0 3 C-0.66 3.66 -1.32 4.32 -2 5 C-2.309375 6.11375 -2.61875 7.2275 -2.9375 8.375 C-4.55007704 13.87673344 -4.55007704 13.87673344 -7 16 C-9.70265778 16.63151212 -12.21099873 16.81711467 -15 17 C-10.60502098 10.67467725 -5.54949524 5.32751543 0 0 Z " fill="#C3C4C4" transform="translate(326,76)"/>
<path d="M0 0 C1 2 1 2 0.48681641 3.84765625 C0.19468262 4.57855469 -0.09745117 5.30945313 -0.3984375 6.0625 C-0.71296875 6.85914063 -1.0275 7.65578125 -1.3515625 8.4765625 C-1.68929688 9.30929687 -2.02703125 10.14203125 -2.375 11 C-2.705 11.83273437 -3.035 12.66546875 -3.375 13.5234375 C-5.76971726 19.53943452 -5.76971726 19.53943452 -7 22 C-7.99 22.33 -8.98 22.66 -10 23 C-11.6741769 25.08697558 -11.6741769 25.08697558 -13.1875 27.5625 C-13.71730469 28.38878906 -14.24710937 29.21507812 -14.79296875 30.06640625 C-15.19128906 30.70449219 -15.58960938 31.34257812 -16 32 C-16.33 31.34 -16.66 30.68 -17 30 C-15.63674916 27.53372842 -14.23300004 25.22230081 -12.6875 22.875 C-12.27048828 22.21628906 -11.85347656 21.55757813 -11.42382812 20.87890625 C-10.34213766 19.21237836 -9.17664143 17.60090113 -8 16 C-7.34 16 -6.68 16 -6 16 C-5.9071875 14.5459375 -5.9071875 14.5459375 -5.8125 13.0625 C-5.14374201 8.11774397 -2.57409304 4.18883776 0 0 Z " fill="#9FA3A3" transform="translate(353,282)"/>
<path d="M0 0 C0.66 0.33 1.32 0.66 2 1 C0.50190651 2.85679194 -1.01891527 4.68165272 -2.5625 6.5 C-3.18995117 7.28697266 -3.18995117 7.28697266 -3.83007812 8.08984375 C-6.30603499 10.95674117 -7.73457816 11.95497308 -11.5 12.59375 C-15.58374191 11.90097235 -17.34571476 10.71060623 -20.4375 8 C-21.30246094 7.2575 -22.16742188 6.515 -23.05859375 5.75 C-23.69925781 5.1725 -24.33992188 4.595 -25 4 C-23.2109375 3.31640625 -23.2109375 3.31640625 -21 3 C-19.0772099 4.36526877 -17.60845504 5.95471146 -15.9765625 7.65234375 C-13.13092216 9.59255307 -11.37094302 9.52292834 -8 9 C-5.56923795 7.07863728 -5.56923795 7.07863728 -3.625 4.5 C-2.93664062 3.6646875 -2.24828125 2.829375 -1.5390625 1.96875 C-1.03117187 1.3190625 -0.52328125 0.669375 0 0 Z " fill="#9FA4A4" transform="translate(150,395)"/>
<path d="M0 0 C2.69401745 2.38316928 4.53633498 4.82758297 6.375 7.875 C11.08200162 15.19291658 17.76842348 20.99890645 24 27 C21 27 21 27 19.52954102 25.87011719 C19.02608154 25.35094727 18.52262207 24.83177734 18.00390625 24.296875 C17.44509766 23.72839844 16.88628906 23.15992188 16.31054688 22.57421875 C15.73369141 21.97222656 15.15683594 21.37023437 14.5625 20.75 C13.98951172 20.16347656 13.41652344 19.57695312 12.82617188 18.97265625 C11.71126126 17.83080303 10.59965664 16.68571062 9.49169922 15.53710938 C8.25520724 14.26297623 6.99568357 13.01124097 5.73046875 11.765625 C2.08038616 8.04138723 0 5.27323959 0 0 Z " fill="#697171" transform="translate(154,303)"/>
<path d="M0 0 C7.65782967 6.3260332 14.90280395 13.13671958 21 21 C20.67 21.66 20.34 22.32 20 23 C18.22183318 21.44523615 16.45272898 19.88183976 14.6875 18.3125 C13.20830078 17.00732422 13.20830078 17.00732422 11.69921875 15.67578125 C9.20597135 13.20418289 7.71589149 11.02276233 6 8 C4.44011814 6.27327092 4.44011814 6.27327092 2.8125 4.8125 C1.884375 3.884375 0.95625 2.95625 0 2 C0 1.34 0 0.68 0 0 Z " fill="#A7AAAB" transform="translate(385,106)"/>
<path d="M0 0 C0.66 0.33 1.32 0.66 2 1 C1.02417969 1.88042969 0.04835937 2.76085937 -0.95703125 3.66796875 C-2.24248094 4.84082431 -3.52762095 6.01401933 -4.8125 7.1875 C-5.45509766 7.76564453 -6.09769531 8.34378906 -6.75976562 8.93945312 C-10.18389532 12.07971715 -12.7426555 14.89047539 -15 19 C-17.6875 21.3125 -17.6875 21.3125 -20 23 C-20.66 22.67 -21.32 22.34 -22 22 C-15.04822797 14.17421407 -7.88450894 6.89322639 0 0 Z " fill="#858787" transform="translate(207,395)"/>
<path d="M0 0 C2.59331732 2.59331732 3.18713843 4.58864281 3.4375 8.125 C3.78631922 12.81468056 5.27931047 16.50155794 7.2578125 20.73828125 C8.09646672 23.29396964 7.90151997 24.50655553 7 27 C7 26.34 7 25.68 7 25 C6.34 25 5.68 25 5 25 C2.75329935 19.52977233 1.61757463 14.86695897 1 9 C0.67 8.67 0.34 8.34 0 8 C-0.14115161 5.32941149 -0.04247107 2.67567762 0 0 Z " fill="#8F9495" transform="translate(100,279)"/>
<path d="M0 0 C-2.03976214 0.96238036 -4.08190046 1.91972527 -6.125 2.875 C-7.26195312 3.40867187 -8.39890625 3.94234375 -9.5703125 4.4921875 C-15.77554544 7.2202284 -20.30466282 8.2308737 -27 8 C-26.67 7.34 -26.34 6.68 -26 6 C-23.73167936 5.36765486 -21.43298739 4.84226125 -19.125 4.375 C-17.86945313 4.11460937 -16.61390625 3.85421875 -15.3203125 3.5859375 C-12 3 -12 3 -9 3 C-9 2.34 -9 1.68 -9 1 C-3.375 -1.125 -3.375 -1.125 0 0 Z " fill="#2D3536" transform="translate(305,387)"/>
<path d="M0 0 C5.24114404 4.27848493 9.66680395 8.81251589 14 14 C14.51175781 14.6084375 15.02351563 15.216875 15.55078125 15.84375 C16.70654005 17.22414924 17.85428435 18.61125376 19 20 C15.993182 18.66000502 14.00237391 17.20154709 11.75 14.8125 C8.54376358 11.47411935 5.12512131 8.55488772 1.50390625 5.67578125 C0 4 0 4 0 0 Z " fill="#586263" transform="translate(99,372)"/>
<path d="M0 0 C0.33 0 0.66 0 1 0 C1.06058594 1.28777344 1.12117188 2.57554687 1.18359375 3.90234375 C1.26798247 5.58074159 1.3526313 7.25912636 1.4375 8.9375 C1.47681641 9.78763672 1.51613281 10.63777344 1.55664062 11.51367188 C1.59853516 12.32255859 1.64042969 13.13144531 1.68359375 13.96484375 C1.72025146 14.7137085 1.75690918 15.46257324 1.79467773 16.23413086 C1.81771063 18.02461326 1.81771063 18.02461326 3 19 C7.84034716 19.16407956 12.23258627 18.95348275 17 18 C14.45212092 20.54787908 12.48592567 20.79541673 9 21.625 C7.39125 22.01558594 7.39125 22.01558594 5.75 22.4140625 C3 23 3 23 1 23 C0.15808218 20.0751367 -0.11819313 17.49258344 -0.09765625 14.453125 C-0.09443359 13.60878906 -0.09121094 12.76445312 -0.08789062 11.89453125 C-0.07951172 11.02183594 -0.07113281 10.14914062 -0.0625 9.25 C-0.05798828 8.36183594 -0.05347656 7.47367187 -0.04882812 6.55859375 C-0.037074 4.37232671 -0.02064249 2.18619821 0 0 Z " fill="#5B6465" transform="translate(267,333)"/>
<path d="M0 0 C1.32 0.99 2.64 1.98 4 3 C3.87109375 5.8203125 3.87109375 5.8203125 3 9 C0.34765625 10.6796875 0.34765625 10.6796875 -2.9375 11.875 C-4.01902344 12.28492187 -5.10054687 12.69484375 -6.21484375 13.1171875 C-9 14 -9 14 -11 14 C-10.67 13.01 -10.34 12.02 -10 11 C-8.02 10.67 -6.04 10.34 -4 10 C-4 9.34 -4 8.68 -4 8 C-2.35 7.67 -0.7 7.34 1 7 C0.67 4.69 0.34 2.38 0 0 Z " fill="#B4B7B7" transform="translate(190,95)"/>
<path d="M0 0 C-2.0829243 0.64715133 -4.16635539 1.29267166 -6.25 1.9375 C-7.41015625 2.29714844 -8.5703125 2.65679687 -9.765625 3.02734375 C-10.83296875 3.34832031 -11.9003125 3.66929687 -13 4 C-13.6496875 4.20625 -14.299375 4.4125 -14.96875 4.625 C-18.06679592 5.19694694 -21.10499644 5.0916204 -24.25 5.0625 C-25.51328125 5.05347656 -26.7765625 5.04445313 -28.078125 5.03515625 C-29.04234375 5.02355469 -30.0065625 5.01195312 -31 5 C-31 4.67 -31 4.34 -31 4 C-30.14619751 3.87939209 -30.14619751 3.87939209 -29.27514648 3.75634766 C-26.66185196 3.38427099 -24.04969869 3.00469066 -21.4375 2.625 C-20.54224609 2.49867188 -19.64699219 2.37234375 -18.72460938 2.2421875 C-14.75154923 1.66005415 -10.92963981 1.05357714 -7.09765625 -0.1640625 C-4.11960608 -0.96772295 -2.81252113 -1.12500845 0 0 Z " fill="#D1D2D3" transform="translate(302,434)"/>
<path d="M0 0 C0.99 1.0209375 0.99 1.0209375 2 2.0625 C4.26781027 4.34974865 6.66310057 6.42419181 9.125 8.5 C12.13245692 11.10119632 14.16693633 13.4303497 16 17 C16.98244845 18.34631825 17.97676564 19.68441297 19 21 C14.70266269 19.09007231 11.01692831 16.75651254 8.625 12.625 C6.67948643 9.4822473 4.36223226 7.7220825 1.42578125 5.52734375 C0 4 0 4 0 0 Z " fill="#8B9191" transform="translate(127,338)"/>
<path d="M0 0 C1.71474559 3.42949118 -0.22159485 7.03850306 -1.25 10.5625 C-1.48380371 11.3764624 -1.71760742 12.1904248 -1.95849609 13.02905273 C-2.63118498 15.35506658 -3.31524604 17.67751653 -4 20 C-4.29648437 21.0415625 -4.59296875 22.083125 -4.8984375 23.15625 C-5.625 25.5625 -5.625 25.5625 -7 29 C-7.99 29.33 -8.98 29.66 -10 30 C-9.67 28.35 -9.34 26.7 -9 25 C-8.34 25 -7.68 25 -7 25 C-6.85304688 24.03513672 -6.85304688 24.03513672 -6.703125 23.05078125 C-3.46153846 3.46153846 -3.46153846 3.46153846 0 0 Z " fill="#293535" transform="translate(395,286)"/>
<path d="M0 0 C1.68978931 3.37957862 -0.15646424 6.79385197 -1.1875 10.25 C-1.39697266 11.00152344 -1.60644531 11.75304687 -1.82226562 12.52734375 C-3.23521024 17.33219397 -5.00975281 20.97885388 -8 25 C-9.60685189 20.98287028 -8.43257376 17.93957783 -7 14 C-6.26910156 13.30970703 -6.26910156 13.30970703 -5.5234375 12.60546875 C-3.53960165 10.51481097 -3.10964629 8.64405142 -2.375 5.875 C-1.08333333 1.08333333 -1.08333333 1.08333333 0 0 Z " fill="#888D8E" transform="translate(433,310)"/>
<path d="M0 0 C6.43266573 0.87357189 11.40429724 4.8244062 15.46875 9.796875 C16.37595735 11.15768602 17.19983428 12.57361764 18 14 C14.01413662 12.26787171 10.72300226 9.6438002 7.3125 7 C6.42208008 6.32324219 6.42208008 6.32324219 5.51367188 5.6328125 C1.12498551 2.24997101 1.12498551 2.24997101 0 0 Z " fill="#646B6C" transform="translate(360,85)"/>
<path d="M0 0 C3.38468433 1.69234217 4.23246587 5.47962622 5.6875 8.8125 C6.02072266 9.53759766 6.35394531 10.26269531 6.69726562 11.00976562 C7.00728516 11.71423828 7.31730469 12.41871094 7.63671875 13.14453125 C7.92248779 13.78753174 8.20825684 14.43053223 8.50268555 15.09301758 C9.10252449 17.39313638 8.74151943 18.77111077 8 21 C3.8382135 14.11603868 1.008964 8.01952421 0 0 Z " fill="#BEC2C2" transform="translate(145,282)"/>
<path d="M0 0 C0.66 0 1.32 0 2 0 C2.50866669 2.35258344 3.0070625 4.70661404 3.5 7.0625 C3.64308594 7.71927734 3.78617188 8.37605469 3.93359375 9.05273438 C4.83952455 13.43139988 5.14031146 17.50418704 5 22 C0.64669908 15.47004862 -0.43664818 7.71411784 0 0 Z " fill="#C8CBCC" transform="translate(57,281)"/>
<path d="M0 0 C4.43947626 0.50736871 6.70139932 2.03971734 10 5 C10.763125 5.680625 11.52625 6.36125 12.3125 7.0625 C14 9 14 9 14 12 C13.01 12.33 12.02 12.66 11 13 C10.67 12.13375 10.34 11.2675 10 10.375 C7.7049238 6.50205892 5.30053671 4.70901709 1.64453125 2.19921875 C1.10183594 1.80347656 0.55914062 1.40773438 0 1 C0 0.67 0 0.34 0 0 Z " fill="#505859" transform="translate(156,367)"/>
<path d="M0 0 C3.04189468 2.94971605 5.96422641 5.98726771 8.8125 9.125 C9.41707031 9.78757812 10.02164063 10.45015625 10.64453125 11.1328125 C12 13 12 13 12 16 C7.42611286 12.67353662 3.18360498 8.69742291 0 4 C0 2.68 0 1.36 0 0 Z " fill="#4D5657" transform="translate(86,356)"/>
<path d="M0 0 C0.66 0.33 1.32 0.66 2 1 C-0.97 4.63 -3.94 8.26 -7 12 C-7.99 11.67 -8.98 11.34 -10 11 C-8.55218207 7.55571735 -6.72305391 5.63869038 -3.875 3.25 C-3.15054688 2.63640625 -2.42609375 2.0228125 -1.6796875 1.390625 C-0.84824219 0.70226562 -0.84824219 0.70226562 0 0 Z " fill="#A4ACAC" transform="translate(177,159)"/>
<path d="M0 0 C4.62694724 0.43650446 6.82710401 0.70267672 10 4 C11.70377468 5.1027581 13.43527529 6.16347257 15.1875 7.1875 C16.08855469 7.71730469 16.98960937 8.24710938 17.91796875 8.79296875 C18.60503906 9.19128906 19.29210937 9.58960938 20 10 C18 11 18 11 15.9375 10.6875 C14 10 14 10 13 8 C11.0282696 6.94535351 9.02237052 5.95394836 7 5 C1.11111111 2.22222222 1.11111111 2.22222222 0 0 Z " fill="#909191" transform="translate(287,141)"/>
<path d="M0 0 C0.598125 0.226875 1.19625 0.45375 1.8125 0.6875 C0.8225 1.5846875 0.8225 1.5846875 -0.1875 2.5 C-2.5248846 4.56251834 -2.5248846 4.56251834 -2.1875 7.6875 C1.2775 9.1725 1.2775 9.1725 4.8125 10.6875 C3.1875 11.4375 3.1875 11.4375 0.8125 11.6875 C-2.4375 10.0625 -2.4375 10.0625 -5.1875 7.6875 C-5.75 5.125 -5.75 5.125 -5.1875 2.6875 C-3.54664326 0.22621489 -2.98587219 -0.42655317 0 0 Z " fill="#ABB0B0" transform="translate(182.1875,420.3125)"/>
<path d="M0 0 C9.9 0 19.8 0 30 0 C29.67 1.32 29.34 2.64 29 4 C28.01 4.495 28.01 4.495 27 5 C27 3.68 27 2.36 27 1 C18.09 1 9.18 1 0 1 C0 0.67 0 0.34 0 0 Z " fill="#DADADA" transform="translate(305,210)"/>
<path d="M0 0 C2 1.3125 2 1.3125 4 3 C4 3.99 4 4.98 4 6 C-3.06608191 6.13794954 -9.97360585 5.74805717 -17 5 C-17 4.67 -17 4.34 -17 4 C-11.06 4 -5.12 4 1 4 C0.67 2.68 0.34 1.36 0 0 Z " fill="#A6B0B1" transform="translate(326,167)"/>
<path d="M0 0 C5.31608562 3.57813455 9.89081268 6.67243804 12 13 C12.66 13.33 13.32 13.66 14 14 C14 14.99 14 15.98 14 17 C13.34 17 12.68 17 12 17 C10.88671875 15.42578125 10.88671875 15.42578125 9.6875 13.3125 C7.51564187 9.66917586 5.04688691 6.96453862 2 4 C0.6875 1.6875 0.6875 1.6875 0 0 Z " fill="#ACB2B2" transform="translate(367,148)"/>
<path d="M0 0 C0.61694336 1.78417969 0.61694336 1.78417969 1 4 C-0.39100376 6.56711342 -1.78932492 8.86148118 -3.4375 11.25 C-3.87126953 11.8996875 -4.30503906 12.549375 -4.75195312 13.21875 C-5.82341928 14.82006205 -6.91026283 16.41106548 -8 18 C-8.33 17.34 -8.66 16.68 -9 16 C-7.890625 13.3203125 -7.890625 13.3203125 -6.25 10.125 C-5.45335938 8.55105469 -5.45335938 8.55105469 -4.640625 6.9453125 C-3.24412652 4.43826522 -1.79111049 2.2334932 0 0 Z " fill="#9CA2A3" transform="translate(83,141)"/>
<path d="M0 0 C0.66 0.33 1.32 0.66 2 1 C1.319375 1.53625 0.63875 2.0725 -0.0625 2.625 C-1.6232327 3.886869 -3.17565253 5.16355295 -4.64453125 6.53125 C-8.64309207 10.21389743 -11.6592455 11.9100501 -17 13 C-14.64722731 10.27573689 -12.37503669 9.1858237 -9 8 C-9 7.34 -9 6.68 -9 6 C-7.03125 4.4921875 -7.03125 4.4921875 -4.5 2.875 C-3.24703125 2.06675781 -3.24703125 2.06675781 -1.96875 1.2421875 C-1.3190625 0.83226562 -0.669375 0.42234375 0 0 Z " fill="#BFC0C1" transform="translate(358,406)"/>
<path d="M0 0 C0.66 0.33 1.32 0.66 2 1 C0.25 3.5 0.25 3.5 -2 6 C-3.32 6 -4.64 6 -6 6 C-6 6.66 -6 7.32 -6 8 C-7.98 8.66 -9.96 9.32 -12 10 C-9.87985899 5.05300432 -6.58055764 3.30033867 -2.05859375 0.8203125 C-1.37925781 0.54960937 -0.69992187 0.27890625 0 0 Z " fill="#6A7172" transform="translate(369,400)"/>
<path d="M0 0 C0 0.66 0 1.32 0 2 C-2.9550405 2.86585625 -5.91445682 3.71566785 -8.875 4.5625 C-9.71675781 4.80935547 -10.55851562 5.05621094 -11.42578125 5.31054688 C-12.23144531 5.53935547 -13.03710938 5.76816406 -13.8671875 6.00390625 C-14.98262939 6.32597046 -14.98262939 6.32597046 -16.12060547 6.65454102 C-18 7 -18 7 -20 6 C-18.09959969 5.28734988 -16.19893326 4.57540068 -14.296875 3.8671875 C-12.80202989 3.3028072 -11.3120484 2.72531429 -9.828125 2.1328125 C-6.2923558 0.73711413 -3.85192203 0 0 0 Z " fill="#575E5F" transform="translate(323,428)"/>
<path d="M0 0 C-1 3 -1 3 -3.36328125 4.421875 C-4.33652344 4.86015625 -5.30976563 5.2984375 -6.3125 5.75 C-7.76076172 6.42289062 -7.76076172 6.42289062 -9.23828125 7.109375 C-12.08944404 8.02884475 -13.25840627 8.06798426 -16 7 C-10.25 4 -10.25 4 -8 4 C-8 3.34 -8 2.68 -8 2 C-5.09399739 0.74335022 -3.20395416 0 0 0 Z " fill="#A5AAAA" transform="translate(300,343)"/>
<path d="M0 0 C2.47759827 1.88025951 2.99775453 2.99054982 3.73046875 6.07421875 C4.53423954 12.4288169 5.2563032 18.59242008 5 25 C4.67 25 4.34 25 4 25 C3.32727653 21.58449704 2.66288201 18.16742548 2 14.75 C1.80921875 13.78191406 1.6184375 12.81382812 1.421875 11.81640625 C1.24140625 10.88183594 1.0609375 9.94726562 0.875 8.984375 C0.70742188 8.12553711 0.53984375 7.26669922 0.3671875 6.38183594 C0 4 0 4 0 0 Z " fill="#434B4C" transform="translate(438,192)"/>
<path d="M0 0 C0.703125 1.67578125 0.703125 1.67578125 1 4 C-0.328125 6.54296875 -0.328125 6.54296875 -2.25 9.1875 C-3.18585938 10.50814453 -3.18585938 10.50814453 -4.140625 11.85546875 C-6 14 -6 14 -9 15 C-7.61219205 11.10993227 -5.7847773 8.03441292 -3.375 4.6875 C-2.74335937 3.80449219 -2.11171875 2.92148438 -1.4609375 2.01171875 C-0.97882813 1.34785156 -0.49671875 0.68398437 0 0 Z " fill="#3E4646" transform="translate(125,155)"/>
<path d="M0 0 C6.59076381 0.01034657 10.61271102 1.50869769 15.80078125 5.56640625 C14.81078125 6.06140625 14.81078125 6.06140625 13.80078125 6.56640625 C11.26666561 5.67385933 8.85911591 4.5712606 6.40625 3.4765625 C2.75540569 2.20123008 0.0514968 2.02555628 -3.51171875 3.56640625 C-4.06859375 3.89640625 -4.62546875 4.22640625 -5.19921875 4.56640625 C-2.84397259 0.73246186 -2.84397259 0.73246186 0 0 Z " fill="#C3C5C5" transform="translate(332.19921875,71.43359375)"/>
<path d="M0 0 C2.2477975 2.05233685 3.0022242 3.00667261 4 6 C4.495 6.433125 4.99 6.86625 5.5 7.3125 C7.60504861 9.68067968 7.65720173 11.91481553 8 15 C4.32842047 11.6261161 1.87656686 8.64203381 0 4 C0 2.68 0 1.36 0 0 Z " fill="#9FA5A5" transform="translate(68,321)"/>
<path d="M0 0 C0.66796875 1.7421875 0.66796875 1.7421875 1 4 C-0.07421875 6.0703125 -0.07421875 6.0703125 -1.6875 8.125 C-2.20699219 8.80820312 -2.72648437 9.49140625 -3.26171875 10.1953125 C-5.06315462 12.06556727 -6.62397539 12.99575431 -9 14 C-7.45158425 10.65291949 -5.50894136 7.75332488 -3.375 4.75 C-2.74335938 3.85796875 -2.11171875 2.9659375 -1.4609375 2.046875 C-0.73777344 1.03367187 -0.73777344 1.03367187 0 0 Z " fill="#434A4B" transform="translate(412,354)"/>
<path d="M0 0 C1.6260287 0.06000106 3.25101549 0.1487885 4.875 0.25 C6.23238281 0.31960937 6.23238281 0.31960937 7.6171875 0.390625 C8.40351563 0.59171875 9.18984375 0.7928125 10 1 C11.125 2.96875 11.125 2.96875 12 5 C15.04199472 6.29231642 15.04199472 6.29231642 18 7 C16 8 16 8 12.5 7.25 C9 6 9 6 7 3 C3.44327821 1.7811879 3.44327821 1.7811879 0 1 C0 0.67 0 0.34 0 0 Z " fill="#656E6F" transform="translate(307,105)"/>
<path d="M0 0 C0.33 0 0.66 0 1 0 C1 1.98 1 3.96 1 6 C-1.39674267 5.88543872 -3.79181218 5.75871281 -6.1875 5.625 C-6.86103516 5.5940625 -7.53457031 5.563125 -8.22851562 5.53125 C-12.19678975 5.29896078 -15.40729879 4.71612524 -19 3 C-15.25 1.875 -15.25 1.875 -13 3 C-11.35857459 3.14640501 -9.7101859 3.22096589 -8.0625 3.25 C-7.18722656 3.27578125 -6.31195313 3.3015625 -5.41015625 3.328125 C-2.56127293 2.94027054 -1.80773296 2.15341231 0 0 Z " fill="#8C9FA1" transform="translate(426,169)"/>
<path d="M0 0 C6.33393082 -0.34548714 11.10261508 0.70657253 17 3 C17 3.33 17 3.66 17 4 C10.66606918 4.34548714 5.89738492 3.29342747 0 1 C0 0.67 0 0.34 0 0 Z " fill="#9FA4A5" transform="translate(187,432)"/>
<path d="M0 0 C0 0.66 0 1.32 0 2 C-0.99 2 -1.98 2 -3 2 C-3.2475 2.598125 -3.495 3.19625 -3.75 3.8125 C-5.20864875 6.36513531 -6.43626682 7.56732558 -9 9 C-11.1328125 8.57421875 -11.1328125 8.57421875 -13 8 C-11.2126038 6.66094733 -9.41995047 5.32890934 -7.625 4 C-6.62726563 3.2575 -5.62953125 2.515 -4.6015625 1.75 C-2 0 -2 0 0 0 Z " fill="#BFC3C3" transform="translate(345,366)"/>
<path d="M0 0 C1.03115279 3.26913624 0.9638984 5.86041348 0.5625 9.25 C0.46066406 10.14203125 0.35882813 11.0340625 0.25390625 11.953125 C0.12822266 12.96632812 0.12822266 12.96632812 0 14 C-0.66 14 -1.32 14 -2 14 C-2 15.65 -2 17.3 -2 19 C-2.33 19 -2.66 19 -3 19 C-3.38614349 12.1781317 -2.00865708 6.50422293 0 0 Z " fill="#BDC0C1" transform="translate(142,214)"/>
<path d="M0 0 C1.32 0.33 2.64 0.66 4 1 C3.37609375 1.54140625 2.7521875 2.0828125 2.109375 2.640625 C-0.30510288 5.34126322 -0.91762917 7.25404252 -1.75 10.75 C-1.99234375 11.73484375 -2.2346875 12.7196875 -2.484375 13.734375 C-2.65453125 14.48203125 -2.8246875 15.2296875 -3 16 C-3.33 16 -3.66 16 -4 16 C-4.47617251 9.30713088 -4.39973696 5.22468764 0 0 Z " fill="#515A5B" transform="translate(143,209)"/>
<path d="M0 0 C0.33 0.99 0.66 1.98 1 3 C-2.63 3.33 -6.26 3.66 -10 4 C-8 0 -8 0 -6.125 -0.8125 C-3.75529032 -1.02159203 -2.20221013 -0.91125936 0 0 Z " fill="#BABCBC" transform="translate(168,71)"/>
<path d="M0 0 C0.66 0 1.32 0 2 0 C0.58328436 4.8404451 -1.27258598 8.78490561 -4 13 C-4.99 13.33 -5.98 13.66 -7 14 C-5.23570801 9.02790438 -2.6060834 4.56561939 0 0 Z " fill="#485051" transform="translate(420,340)"/>
<path d="M0 0 C0.33 1.32 0.66 2.64 1 4 C-3.455 7.96 -3.455 7.96 -8 12 C-8 8.03869629 -6.65122875 7.17085599 -4 4.3125 C-3.2575 3.50425781 -2.515 2.69601562 -1.75 1.86328125 C-1.1725 1.24839844 -0.595 0.63351562 0 0 Z " fill="#3B4343" transform="translate(402,368)"/>
<path d="M0 0 C0.66 0.33 1.32 0.66 2 1 C0.59627198 2.20276695 -0.82352097 3.38680519 -2.25 4.5625 C-3.43335938 5.55443359 -3.43335938 5.55443359 -4.640625 6.56640625 C-7 8 -7 8 -9.296875 7.71484375 C-9.85890625 7.47894531 -10.4209375 7.24304688 -11 7 C-2.99658509 1.10984633 -2.99658509 1.10984633 0 0 Z " fill="#464F4F" transform="translate(313,336)"/>
<path d="M0 0 C0.640625 1.76953125 0.640625 1.76953125 1 4 C0.109375 5.88671875 0.109375 5.88671875 -1.25 7.6875 C-1.68828125 8.28949219 -2.1265625 8.89148438 -2.578125 9.51171875 C-4 11 -4 11 -7 12 C-5.44298069 7.32894208 -2.91552627 3.91294315 0 0 Z " fill="#404849" transform="translate(343,304)"/>
<path d="M0 0 C4.65895985 2.49587135 6.49698545 7.14056033 8 12 C7.67 12.66 7.34 13.32 7 14 C3.03810217 9.76486783 1.56818272 5.452999 0 0 Z " fill="#7C8282" transform="translate(412,137)"/>
<path d="M0 0 C0.66 0.33 1.32 0.66 2 1 C-0.33333333 3.33333333 -2.66666667 5.66666667 -5 8 C-6.32 7.67 -7.64 7.34 -9 7 C-6.03 4.69 -3.06 2.38 0 0 Z " fill="#404949" transform="translate(163,118)"/>
<path d="M0 0 C0.99 0.495 0.99 0.495 2 1 C2 1.66 2 2.32 2 3 C2.66 3 3.32 3 4 3 C4.66 7.29 5.32 11.58 6 16 C4 15 4 15 2.9296875 12.12890625 C2.58164063 10.95199219 2.23359375 9.77507812 1.875 8.5625 C1.52179687 7.38816406 1.16859375 6.21382813 0.8046875 5.00390625 C0 2 0 2 0 0 Z " fill="#989F9F" transform="translate(62,305)"/>
<path d="M0 0 C1.63129887 4.06285757 0.29968777 7.20102184 -0.9375 11.25 C-1.31777344 12.51328125 -1.69804687 13.7765625 -2.08984375 15.078125 C-2.39019531 16.04234375 -2.69054687 17.0065625 -3 18 C-4.15119069 14.54642792 -3.85908953 11.98871081 -3.1875 8.4375 C-3.01605469 7.48746094 -2.84460938 6.53742188 -2.66796875 5.55859375 C-2 3 -2 3 0 0 Z " fill="#B7B9B9" transform="translate(438,292)"/>
<path d="M0 0 C0.96232398 3.84929592 0.9752374 5.28233283 0.1875 9 C0.01605469 9.845625 -0.15539062 10.69125 -0.33203125 11.5625 C-1 14 -1 14 -3 18 C-3 15.03 -3 12.06 -3 9 C-2.67 9 -2.34 9 -2 9 C-1.34 6.03 -0.68 3.06 0 0 Z " fill="#BBBDBD" transform="translate(357,264)"/>
<path d="M0 0 C3.66786393 1.50349377 5.68910393 3.63728792 8.25 6.625 C8.95640625 7.44226563 9.6628125 8.25953125 10.390625 9.1015625 C10.92171875 9.72804687 11.4528125 10.35453125 12 11 C11.67 11.66 11.34 12.32 11 13 C7.58072444 10.75978498 6.01195982 8.52092968 4 5 C2.68962066 3.31522656 1.36176922 1.64351457 0 0 Z " fill="#828A8B" transform="translate(355,135)"/>
<path d="M0 0 C2.70931419 0.15481795 4.46584039 0.48172081 6.4453125 2.40234375 C7.67679642 3.89771708 8.8429837 5.4462924 10 7 C6.433255 7 5.89456323 6.36308045 3.3125 4.0625 C2.68988281 3.51722656 2.06726563 2.97195313 1.42578125 2.41015625 C0.95527344 1.94480469 0.48476562 1.47945313 0 1 C0 0.67 0 0.34 0 0 Z " fill="#596162" transform="translate(146,359)"/>
<path d="M0 0 C0.99 0 1.98 0 3 0 C3.33 1.32 3.66 2.64 4 4 C4.66 4 5.32 4 6 4 C6.33 5.98 6.66 7.96 7 10 C3.60582235 6.87378374 1.3937282 4.43458973 0 0 Z " fill="#C0C3C4" transform="translate(86,354)"/>
<path d="M0 0 C4.40938215 0.50392939 6.78843816 1.9620361 10 5 C11.3125 7.25 11.3125 7.25 12 9 C7.29009726 6.90670989 3.53091997 3.71675786 0 0 Z " fill="#A4AAAA" transform="translate(327,113)"/>
<path d="M0 0 C3.48247874 1.16082625 3.88819244 1.90932476 5.75 4.9375 C6.19859375 5.64777344 6.6471875 6.35804688 7.109375 7.08984375 C7.40328125 7.72019531 7.6971875 8.35054688 8 9 C7.67 9.66 7.34 10.32 7 11 C4.0444623 8.24829249 1.88436685 5.58029701 0 2 C0 1.34 0 0.68 0 0 Z " fill="#353F40" transform="translate(78,345)"/>
<path d="M0 0 C1.34780093 2.69560185 0.67336458 3.742617 -0.25 6.5625 C-0.50265625 7.36816406 -0.7553125 8.17382812 -1.015625 9.00390625 C-1.34046875 9.66261719 -1.6653125 10.32132812 -2 11 C-2.99 11.33 -3.98 11.66 -5 12 C-4.67 10.35 -4.34 8.7 -4 7 C-3.34 7 -2.68 7 -2 7 C-1.855625 6.030625 -1.71125 5.06125 -1.5625 4.0625 C-1 1 -1 1 0 0 Z " fill="#909999" transform="translate(390,304)"/>
<path d="M0 0 C4.30764815 1.56641751 8.06171464 3.68336156 12 6 C9.0201445 7.26070809 7.97683969 6.99119908 4.875 5.8125 C2.00950474 4.00599212 1.0799689 3.13190982 0 0 Z " fill="#ABAFAF" transform="translate(348,78)"/>
<path d="M0 0 C2.04795423 1.9626228 2.94976638 3.4277307 3.19921875 6.26953125 C3.18858877 8.51954383 3.12958525 10.75385562 3 13 C2.690625 12.360625 2.38125 11.72125 2.0625 11.0625 C1.1654837 9.06389179 1.1654837 9.06389179 0 8 C-0.14115161 5.32941149 -0.04247107 2.67567762 0 0 Z " fill="#545D5D" transform="translate(100,279)"/>
<path d="M0 0 C0.99 0.495 0.99 0.495 2 1 C2.59355614 3.64860427 2.74209269 6.29197322 3 9 C3.66 9 4.32 9 5 9 C4.67 9.99 4.34 10.98 4 12 C0.81076967 7.81413519 -0.50423019 5.29441695 0 0 Z " fill="#3D4343" transform="translate(428,165)"/>
<path d="M0 0 C0.99 0.495 0.99 0.495 2 1 C2 1.66 2 2.32 2 3 C2.66 3 3.32 3 4 3 C5.6875 5.375 5.6875 5.375 7 8 C6.67 8.66 6.34 9.32 6 10 C4.5 8.625 4.5 8.625 3 7 C3 6.34 3 5.68 3 5 C2.01 4.67 1.02 4.34 0 4 C0 2.68 0 1.36 0 0 Z " fill="#8C9293" transform="translate(114,319)"/>
<path d="M0 0 C2.9719385 1.12451727 5.33440687 2.22293791 8 4 C8 4.66 8 5.32 8 6 C8.99 6.33 9.98 6.66 11 7 C10.01 7.495 10.01 7.495 9 8 C8.34 7.67 7.68 7.34 7 7 C7 6.34 7 5.68 7 5 C6.21625 4.9175 5.4325 4.835 4.625 4.75 C2 4 2 4 0.6875 1.9375 C0.460625 1.298125 0.23375 0.65875 0 0 Z " fill="#374142" transform="translate(325,113)"/>
<path d="M0 0 C0.66 0.33 1.32 0.66 2 1 C0.76055724 1.86941494 -0.49207059 2.72005457 -1.75 3.5625 C-2.44609375 4.03816406 -3.1421875 4.51382813 -3.859375 5.00390625 C-6 6 -6 6 -8.265625 5.65234375 C-8.83796875 5.43707031 -9.4103125 5.22179687 -10 5 C-3.375 1.125 -3.375 1.125 0 0 Z " fill="#353E3E" transform="translate(175,112)"/>
<path d="M0 0 C3.94120709 0.56302958 6.7508723 1.6791945 10 4 C10 4.66 10 5.32 10 6 C5.56909529 4.79157144 3.01887244 3.48331435 0 0 Z " fill="#343D3D" transform="translate(347,76)"/>
<path d="M0 0 C0.8971875 0.309375 0.8971875 0.309375 1.8125 0.625 C0.37955502 1.46614171 -1.05904405 2.29765687 -2.5 3.125 C-3.70076172 3.82109375 -3.70076172 3.82109375 -4.92578125 4.53125 C-7.1875 5.625 -7.1875 5.625 -10.1875 5.625 C-2.68278302 -0.45990566 -2.68278302 -0.45990566 0 0 Z " fill="#959B9B" transform="translate(157.1875,73.375)"/>
<path d="M0 0 C0.99 0.495 0.99 0.495 2 1 C2 1.66 2 2.32 2 3 C2.66 3 3.32 3 4 3 C4.66 5.64 5.32 8.28 6 11 C5.34 10.67 4.68 10.34 4 10 C3.375 7.4375 3.375 7.4375 3 5 C2.01 4.67 1.02 4.34 0 4 C0 2.68 0 1.36 0 0 Z " fill="#697172" transform="translate(108,306)"/>
<path d="M0 0 C3.08089673 2.77280706 4.68775452 5.06326356 6 9 C2.83884224 7.63016497 2.0072908 7.0109362 0 4 C0 2.68 0 1.36 0 0 Z " fill="#747D7E" transform="translate(154,303)"/>
<path d="M0 0 C1.485 0.99 1.485 0.99 3 2 C3 2.66 3 3.32 3 4 C3.66 4 4.32 4 5 4 C5.33 5.32 5.66 6.64 6 8 C5.34 8 4.68 8 4 8 C4 7.34 4 6.68 4 6 C2.68 5.34 1.36 4.68 0 4 C0 2.68 0 1.36 0 0 Z " fill="#4C5657" transform="translate(376,161)"/>
<path d="M0 0 C0.33 1.32 0.66 2.64 1 4 C-1.31 5.65 -3.62 7.3 -6 9 C-4.47291037 5.56404834 -2.40072955 2.88087546 0 0 Z " fill="#ABB1B1" transform="translate(94,126)"/>
<path d="M0 0 C0.66 0.33 1.32 0.66 2 1 C-1.32307692 5.8 -1.32307692 5.8 -4.75 6.8125 C-5.4925 6.874375 -6.235 6.93625 -7 7 C-4.66666667 4.66666667 -2.33333333 2.33333333 0 0 Z " fill="#C1C4C4" transform="translate(133,88)"/>
<path d="M0 0 C0.75 1.75 0.75 1.75 1 4 C-0.9375 6.25 -0.9375 6.25 -3 8 C-3.66 7.67 -4.32 7.34 -5 7 C-1.125 1.125 -1.125 1.125 0 0 Z " fill="#E5E5E5" transform="translate(322,82)"/>
<path d="M0 0 C0.33 0.66 0.66 1.32 1 2 C2.65 2 4.3 2 6 2 C5.01 3.32 4.02 4.64 3 6 C2.01 5.67 1.02 5.34 0 5 C0 3.35 0 1.7 0 0 Z " fill="#D1D2D2" transform="translate(269,270)"/>
<path d="M0 0 C0.59296875 0.20496094 1.1859375 0.40992188 1.796875 0.62109375 C0.51036794 1.31820106 -0.78253165 2.00352251 -2.078125 2.68359375 C-3.15707031 3.25787109 -3.15707031 3.25787109 -4.2578125 3.84375 C-4.89976562 4.10027344 -5.54171875 4.35679687 -6.203125 4.62109375 C-6.863125 4.29109375 -7.523125 3.96109375 -8.203125 3.62109375 C-2.74543269 -0.47217548 -2.74543269 -0.47217548 0 0 Z " fill="#677071" transform="translate(349.203125,414.37890625)"/>
<path d="M0 0 C0.556875 0.226875 1.11375 0.45375 1.6875 0.6875 C-5.0625 4.6875 -5.0625 4.6875 -7.3125 4.6875 C-7.3125 4.0275 -7.3125 3.3675 -7.3125 2.6875 C-3.15982824 -0.42700382 -3.15982824 -0.42700382 0 0 Z " fill="#959C9D" transform="translate(330.3125,375.3125)"/>
<path d="M0 0 C2.4375 0.75 2.4375 0.75 5 2 C5.8125 4.125 5.8125 4.125 6 6 C5.01 6.33 4.02 6.66 3 7 C2.01 4.69 1.02 2.38 0 0 Z " fill="#8D9292" transform="translate(164,373)"/>
<path d="M0 0 C3.1808342 2.12055614 4.31525278 3.63050557 6 7 C5.67 7.66 5.34 8.32 5 9 C2.5 6.75 2.5 6.75 0 4 C0 2.68 0 1.36 0 0 Z " fill="#787F80" transform="translate(121,329)"/>
<path d="M0 0 C2.3125 0.1875 2.3125 0.1875 5 1 C6.8125 3.5625 6.8125 3.5625 8 6 C4.63408134 4.55746343 2.48952921 2.66735273 0 0 Z " fill="#ACB1B1" transform="translate(178,331)"/>
<path d="M0 0 C0.66 0 1.32 0 2 0 C3.1577506 3.47325181 3.06866652 6.36067448 3 10 C0.70366176 6.55549263 0.45983515 4.06187717 0 0 Z " fill="#B6BABB" transform="translate(59,293)"/>
<path d="M0 0 C0.59296875 0.20496094 1.1859375 0.40992188 1.796875 0.62109375 C0.51036794 1.31820106 -0.78253165 2.00352251 -2.078125 2.68359375 C-3.15707031 3.25787109 -3.15707031 3.25787109 -4.2578125 3.84375 C-4.89976562 4.10027344 -5.54171875 4.35679687 -6.203125 4.62109375 C-6.863125 4.29109375 -7.523125 3.96109375 -8.203125 3.62109375 C-2.74543269 -0.47217548 -2.74543269 -0.47217548 0 0 Z " fill="#6E7778" transform="translate(207.203125,141.37890625)"/>
<path d="M0 0 C1.32 0.33 2.64 0.66 4 1 C4.66 3.31 5.32 5.62 6 8 C1.125 3.375 1.125 3.375 0 0 Z " fill="#505858" transform="translate(406,129)"/>
<path d="M0 0 C0.33 0 0.66 0 1 0 C1 4.29 1 8.58 1 13 C0.67 13 0.34 13 0 13 C-0.16873478 11.56274129 -0.33490737 10.12518162 -0.5 8.6875 C-0.5928125 7.88699219 -0.685625 7.08648437 -0.78125 6.26171875 C-1 4 -1 4 -1 1 C-0.67 0.67 -0.34 0.34 0 0 Z " fill="#D8D8D8" transform="translate(358,246)"/>
</svg>
