<?xml version="1.0" encoding="UTF-8"?>
<svg version="1.1" xmlns="http://www.w3.org/2000/svg" width="192" height="192">
<path d="M0 0 C63.36 0 126.72 0 192 0 C192 63.36 192 126.72 192 192 C128.64 192 65.28 192 0 192 C0 128.64 0 65.28 0 0 Z " fill="#010101" transform="translate(0,0)"/>
<path d="M0 0 C4.70251 14.34812352 4.70251 14.34812352 5 21 C5.06316406 21.97839844 5.12632812 22.95679687 5.19140625 23.96484375 C5.87386204 43.18367939 -0.19880688 62.03736064 -12.80859375 76.6953125 C-24.33903671 88.82180331 -38.25559919 98.7448293 -55 102 C-57.64 102 -60.28 102 -63 102 C-63 96.39 -63 90.78 -63 85 C-61.205625 84.5875 -59.41125 84.175 -57.5625 83.75 C-46.16034345 80.87269524 -35.97907324 75.84167576 -28 67 C-27.53078125 66.52304688 -27.0615625 66.04609375 -26.578125 65.5546875 C-19.20913177 57.69189575 -13.14605118 45.7671579 -12.94067383 34.8449707 C-13.04409279 32.58773218 -13.16273091 30.33114721 -13.29541016 28.07543945 C-14.2372296 11.90379271 -14.2372296 11.90379271 -10.6328125 6.796875 C-7.82803412 3.71452092 -4.36482227 0 0 0 Z " fill="#F7F7F7" transform="translate(166,65)"/>
<path d="M0 0 C10.89 0 21.78 0 33 0 C33.23090482 5.80340775 33.42937177 11.59065875 33.54931641 17.39501953 C33.59933143 19.36432095 33.66737241 21.33325614 33.75439453 23.30126953 C34.49893323 40.58332666 34.49893323 40.58332666 30.72949219 45.58300781 C28.27463 48.03787 25.89442669 50.09235418 23 52 C13.46187316 49.02179533 6.90537224 42.23687026 2.18359375 33.515625 C-2.90760836 22.69472018 -3.8065718 11.41971541 0 0 Z " fill="#FBFBFB" transform="translate(56,79)"/>
<path d="M0 0 C5.28 0 10.56 0 16 0 C15.94199219 1.4025 15.88398437 2.805 15.82421875 4.25 C15.22778292 24.938639 19.35591938 40.30944289 33.7421875 55.79296875 C36.63467656 58.62040183 39.59470294 60.82640613 43 63 C41.5376608 66.3221347 39.69193394 68.69313983 37.1875 71.3125 C36.52105469 72.03050781 35.85460938 72.74851562 35.16796875 73.48828125 C33 75 33 75 30.59765625 75.0234375 C19.60241452 70.6914776 12.65825441 58.73075599 7 49 C6.46761719 48.16082031 5.93523438 47.32164063 5.38671875 46.45703125 C3.84245729 43.72086095 2.85075332 41.04738318 1.875 38.0625 C1.54242187 37.06347656 1.20984375 36.06445312 0.8671875 35.03515625 C-1.06338334 28.27815829 -1.15250912 21.85314559 -1.125 14.875 C-1.12886719 13.88628906 -1.13273437 12.89757812 -1.13671875 11.87890625 C-1.13542969 10.92628906 -1.13414063 9.97367188 -1.1328125 8.9921875 C-1.13168457 8.12964355 -1.13055664 7.26709961 -1.12939453 6.37841797 C-1 4 -1 4 0 0 Z " fill="#F9F9F9" transform="translate(23,79)"/>
<path d="M0 0 C2.58396598 1.76334918 4.63726297 3.79192052 6.81640625 6.03515625 C7.615625 6.85242187 8.41484375 7.6696875 9.23828125 8.51171875 C9.8415625 9.13820313 10.44484375 9.7646875 11.06640625 10.41015625 C8.12195126 13.63436944 5.22573179 15.56110155 1.37890625 17.59765625 C-6.12988986 21.88316428 -12.53691316 26.83840533 -15.87109375 34.97265625 C-17.45148718 37.16069077 -18.29365987 38.26436703 -20.96435547 38.87280273 C-22.08994873 38.88935913 -22.08994873 38.88935913 -23.23828125 38.90625 C-24.05176025 38.92163818 -24.86523926 38.93702637 -25.70336914 38.95288086 C-29.46127405 38.88973795 -33.18529344 38.690403 -36.93359375 38.41015625 C-34.83650627 25.19850511 -22.47477354 13.45983187 -12.06640625 5.88671875 C-11.36257812 5.39945313 -10.65875 4.9121875 -9.93359375 4.41015625 C-8.84691406 3.61738281 -8.84691406 3.61738281 -7.73828125 2.80859375 C-2.54360154 -0.77592693 -2.54360154 -0.77592693 0 0 Z " fill="#F7F7F7" transform="translate(64.93359375,25.58984375)"/>
<path d="M0 0 C4.33831372 1.55422454 7.77477081 4.24816676 11.5078125 6.8984375 C12.15878906 7.30707031 12.80976563 7.71570312 13.48046875 8.13671875 C22.46881448 14.0981883 29.68581055 24.35583083 34.5078125 33.8984375 C34.5078125 35.2184375 34.5078125 36.5384375 34.5078125 37.8984375 C19.56372928 39.42680965 19.56372928 39.42680965 14.84375 35.91796875 C12.87752794 33.32897914 11.17668501 30.68672572 9.5078125 27.8984375 C3.74817262 20.55978407 -4.5172718 16.42474101 -12.4921875 11.8984375 C-11.0298483 8.5763028 -9.18412144 6.20529767 -6.6796875 3.5859375 C-6.01324219 2.86792969 -5.34679687 2.14992188 -4.66015625 1.41015625 C-2.4921875 -0.1015625 -2.4921875 -0.1015625 0 0 Z " fill="#F9F9F9" transform="translate(129.4921875,26.1015625)"/>
<path d="M0 0 C-0.6081659 14.0182239 -5.63582243 24.133241 -15.75 33.75 C-21.4720277 38.53508749 -28.39366746 42.45226842 -36 42 C-36.8762709 35.36524472 -36.8762709 35.36524472 -34.69390869 31.96508789 C-32.75765085 29.79959652 -30.73627964 27.78483656 -28.6328125 25.78125 C-27.88289032 25.03790405 -27.13296814 24.29455811 -26.36032104 23.52868652 C-24.77726802 21.96642986 -23.18473913 20.41372449 -21.58349609 18.87011719 C-19.12296042 16.49803373 -16.69041175 14.09994931 -14.26171875 11.6953125 C-12.72029143 10.18072133 -11.17737317 8.6676457 -9.6328125 7.15625 C-8.89942657 6.43763794 -8.16604065 5.71902588 -7.41043091 4.9786377 C-6.7298764 4.32375366 -6.0493219 3.66886963 -5.34814453 2.99414062 C-4.74857941 2.41426392 -4.14901428 1.83438721 -3.53128052 1.23693848 C-2 0 -2 0 0 0 Z " fill="#F7F7F7" transform="translate(139,92)"/>
<path d="M0 0 C8.58 0 17.16 0 26 0 C24.01480764 3.97038472 22.16648631 6.09134532 19.0625 9.203125 C18.58176025 9.6857782 18.10102051 10.1684314 17.60571289 10.66571045 C16.59278907 11.67999064 15.57735362 12.69176804 14.55957031 13.70117188 C12.99826835 15.25171972 11.44797503 16.81270503 9.8984375 18.375 C8.91209939 19.36001734 7.9251415 20.34441453 6.9375 21.328125 C6.03902344 22.2243457 5.14054687 23.12056641 4.21484375 24.04394531 C2 26 2 26 0 26 C0 17.42 0 8.84 0 0 Z " fill="#F1F1F1" transform="translate(103,79)"/>
<path d="M0 0 C1.8871875 0.5878125 1.8871875 0.5878125 3.8125 1.1875 C3.8125 6.7975 3.8125 12.4075 3.8125 18.1875 C-1.92538509 18.1875 -4.92532031 17.90285825 -10.125 16.1875 C-11.26839844 15.81625 -12.41179687 15.445 -13.58984375 15.0625 C-14.44707031 14.77375 -15.30429688 14.485 -16.1875 14.1875 C-16.1875 9.4902552 -12.86646245 7.09407711 -9.75463867 3.9050293 C-6.52836282 0.84869379 -4.47060558 -0.5623851 0 0 Z " fill="#F3F3F3" transform="translate(85.1875,148.8125)"/>
<path d="M0 0 C0 4.29 0 8.58 0 13 C-7.92 13 -15.84 13 -24 13 C-17.1572379 6.1572379 -10.11271671 0 0 0 Z " fill="#F5F5F5" transform="translate(89,51)"/>
<path d="M0 0 C9.37812276 1.56302046 16.16823636 5.46526956 23 12 C23 12.33 23 12.66 23 13 C15.41 13 7.82 13 0 13 C0 8.71 0 4.42 0 0 Z " fill="#F9F9F9" transform="translate(104,51)"/>
</svg>
